ISO-10303-21;
HEADER;
FILE_DESCRIPTION(('FreeCAD Model'),'2;1');
FILE_NAME('Open CASCADE Shape Model','2026-08-11T12:36:58',(''),(''),
  'Open CASCADE STEP processor 7.8','FreeCAD','Unknown');
FILE_SCHEMA(('AUTOMOTIVE_DESIGN { 1 0 10303 214 1 1 1 1 }'));
ENDSEC;
DATA;
#1 = APPLICATION_PROTOCOL_DEFINITION('international standard',
  'automotive_design',2000,#2);
#2 = APPLICATION_CONTEXT(
  'core data for automotive mechanical design processes');
#3 = SHAPE_DEFINITION_REPRESENTATION(#4,#10);
#4 = PRODUCT_DEFINITION_SHAPE('','',#5);
#5 = PRODUCT_DEFINITION('design','',#6,#9);
#6 = PRODUCT_DEFINITION_FORMATION('','',#7);
#7 = PRODUCT('Fusion','Fusion','',(#8));
#8 = PRODUCT_CONTEXT('',#2,'mechanical');
#9 = PRODUCT_DEFINITION_CONTEXT('part definition',#2,'design');
#10 = ADVANCED_BREP_SHAPE_REPRESENTATION('',(#11,#15),#2167);
#11 = AXIS2_PLACEMENT_3D('',#12,#13,#14);
#12 = CARTESIAN_POINT('',(0.,0.,0.));
#13 = DIRECTION('',(0.,0.,1.));
#14 = DIRECTION('',(1.,0.,-0.));
#15 = MANIFOLD_SOLID_BREP('',#16);
#16 = CLOSED_SHELL('',(#17,#329,#360,#400,#433,#466,#497,#528,#561,#592,
    #625,#656,#678,#709,#731,#778,#802,#842,#859,#906,#930,#970,#987,
    #1034,#1058,#1098,#1115,#1162,#1186,#1226,#1243,#1290,#1314,#1354,
    #1371,#1418,#1442,#1482,#1499,#1546,#1570,#1594,#1627,#1674,#1698,
    #1738,#1755,#1772,#1789,#1801,#1818,#1835,#1847,#1864,#1881,#1893,
    #1910,#1927,#1939,#1956,#1973,#1985,#2002,#2019,#2031,#2048,#2065,
    #2077,#2094,#2111,#2123,#2145));
#17 = ADVANCED_FACE('',(#18,#52,#86,#120,#154,#188,#222,#256,#290),#324,
  .F.);
#18 = FACE_BOUND('',#19,.F.);
#19 = EDGE_LOOP('',(#20,#30,#38,#46));
#20 = ORIENTED_EDGE('',*,*,#21,.T.);
#21 = EDGE_CURVE('',#22,#24,#26,.T.);
#22 = VERTEX_POINT('',#23);
#23 = CARTESIAN_POINT('',(6.661338147751E-15,-10.,-10.));
#24 = VERTEX_POINT('',#25);
#25 = CARTESIAN_POINT('',(165.2,-10.,-10.));
#26 = LINE('',#27,#28);
#27 = CARTESIAN_POINT('',(6.661338147751E-15,-10.,-10.));
#28 = VECTOR('',#29,1.);
#29 = DIRECTION('',(1.,4.440892098501E-16,-2.22044604925E-16));
#30 = ORIENTED_EDGE('',*,*,#31,.T.);
#31 = EDGE_CURVE('',#24,#32,#34,.T.);
#32 = VERTEX_POINT('',#33);
#33 = CARTESIAN_POINT('',(165.2,10.,-10.));
#34 = LINE('',#35,#36);
#35 = CARTESIAN_POINT('',(165.2,-10.,-10.));
#36 = VECTOR('',#37,1.);
#37 = DIRECTION('',(-4.440892098501E-16,1.,2.22044604925E-16));
#38 = ORIENTED_EDGE('',*,*,#39,.F.);
#39 = EDGE_CURVE('',#40,#32,#42,.T.);
#40 = VERTEX_POINT('',#41);
#41 = CARTESIAN_POINT('',(-2.22044604925E-15,10.,-10.));
#42 = LINE('',#43,#44);
#43 = CARTESIAN_POINT('',(-2.22044604925E-15,10.,-10.));
#44 = VECTOR('',#45,1.);
#45 = DIRECTION('',(1.,4.440892098501E-16,-2.22044604925E-16));
#46 = ORIENTED_EDGE('',*,*,#47,.F.);
#47 = EDGE_CURVE('',#22,#40,#48,.T.);
#48 = LINE('',#49,#50);
#49 = CARTESIAN_POINT('',(6.661338147751E-15,-10.,-10.));
#50 = VECTOR('',#51,1.);
#51 = DIRECTION('',(-4.440892098501E-16,1.,2.22044604925E-16));
#52 = FACE_BOUND('',#53,.F.);
#53 = EDGE_LOOP('',(#54,#64,#72,#80));
#54 = ORIENTED_EDGE('',*,*,#55,.T.);
#55 = EDGE_CURVE('',#56,#58,#60,.T.);
#56 = VERTEX_POINT('',#57);
#57 = CARTESIAN_POINT('',(159.975,-1.6,-10.));
#58 = VERTEX_POINT('',#59);
#59 = CARTESIAN_POINT('',(149.775,-1.6,-10.));
#60 = LINE('',#61,#62);
#61 = CARTESIAN_POINT('',(159.975,-1.6,-10.));
#62 = VECTOR('',#63,1.);
#63 = DIRECTION('',(-1.,-4.440892098501E-16,2.22044604925E-16));
#64 = ORIENTED_EDGE('',*,*,#65,.T.);
#65 = EDGE_CURVE('',#58,#66,#68,.T.);
#66 = VERTEX_POINT('',#67);
#67 = CARTESIAN_POINT('',(149.775,1.6,-10.));
#68 = LINE('',#69,#70);
#69 = CARTESIAN_POINT('',(149.775,-1.6,-10.));
#70 = VECTOR('',#71,1.);
#71 = DIRECTION('',(-4.440892098501E-16,1.,2.22044604925E-16));
#72 = ORIENTED_EDGE('',*,*,#73,.T.);
#73 = EDGE_CURVE('',#66,#74,#76,.T.);
#74 = VERTEX_POINT('',#75);
#75 = CARTESIAN_POINT('',(159.975,1.6,-10.));
#76 = LINE('',#77,#78);
#77 = CARTESIAN_POINT('',(149.775,1.6,-10.));
#78 = VECTOR('',#79,1.);
#79 = DIRECTION('',(1.,4.440892098501E-16,-2.22044604925E-16));
#80 = ORIENTED_EDGE('',*,*,#81,.T.);
#81 = EDGE_CURVE('',#74,#56,#82,.T.);
#82 = LINE('',#83,#84);
#83 = CARTESIAN_POINT('',(159.975,1.6,-10.));
#84 = VECTOR('',#85,1.);
#85 = DIRECTION('',(4.440892098501E-16,-1.,-2.22044604925E-16));
#86 = FACE_BOUND('',#87,.F.);
#87 = EDGE_LOOP('',(#88,#98,#106,#114));
#88 = ORIENTED_EDGE('',*,*,#89,.T.);
#89 = EDGE_CURVE('',#90,#92,#94,.T.);
#90 = VERTEX_POINT('',#91);
#91 = CARTESIAN_POINT('',(139.325,-1.6,-10.));
#92 = VERTEX_POINT('',#93);
#93 = CARTESIAN_POINT('',(129.125,-1.6,-10.));
#94 = LINE('',#95,#96);
#95 = CARTESIAN_POINT('',(139.325,-1.6,-10.));
#96 = VECTOR('',#97,1.);
#97 = DIRECTION('',(-1.,-4.440892098501E-16,2.22044604925E-16));
#98 = ORIENTED_EDGE('',*,*,#99,.T.);
#99 = EDGE_CURVE('',#92,#100,#102,.T.);
#100 = VERTEX_POINT('',#101);
#101 = CARTESIAN_POINT('',(129.125,1.6,-10.));
#102 = LINE('',#103,#104);
#103 = CARTESIAN_POINT('',(129.125,-1.6,-10.));
#104 = VECTOR('',#105,1.);
#105 = DIRECTION('',(-4.440892098501E-16,1.,2.22044604925E-16));
#106 = ORIENTED_EDGE('',*,*,#107,.T.);
#107 = EDGE_CURVE('',#100,#108,#110,.T.);
#108 = VERTEX_POINT('',#109);
#109 = CARTESIAN_POINT('',(139.325,1.6,-10.));
#110 = LINE('',#111,#112);
#111 = CARTESIAN_POINT('',(129.125,1.6,-10.));
#112 = VECTOR('',#113,1.);
#113 = DIRECTION('',(1.,4.440892098501E-16,-2.22044604925E-16));
#114 = ORIENTED_EDGE('',*,*,#115,.T.);
#115 = EDGE_CURVE('',#108,#90,#116,.T.);
#116 = LINE('',#117,#118);
#117 = CARTESIAN_POINT('',(139.325,1.6,-10.));
#118 = VECTOR('',#119,1.);
#119 = DIRECTION('',(4.440892098501E-16,-1.,-2.22044604925E-16));
#120 = FACE_BOUND('',#121,.F.);
#121 = EDGE_LOOP('',(#122,#132,#140,#148));
#122 = ORIENTED_EDGE('',*,*,#123,.T.);
#123 = EDGE_CURVE('',#124,#126,#128,.T.);
#124 = VERTEX_POINT('',#125);
#125 = CARTESIAN_POINT('',(118.675,-1.6,-10.));
#126 = VERTEX_POINT('',#127);
#127 = CARTESIAN_POINT('',(108.475,-1.6,-10.));
#128 = LINE('',#129,#130);
#129 = CARTESIAN_POINT('',(118.675,-1.6,-10.));
#130 = VECTOR('',#131,1.);
#131 = DIRECTION('',(-1.,-4.440892098501E-16,2.22044604925E-16));
#132 = ORIENTED_EDGE('',*,*,#133,.T.);
#133 = EDGE_CURVE('',#126,#134,#136,.T.);
#134 = VERTEX_POINT('',#135);
#135 = CARTESIAN_POINT('',(108.475,1.6,-10.));
#136 = LINE('',#137,#138);
#137 = CARTESIAN_POINT('',(108.475,-1.6,-10.));
#138 = VECTOR('',#139,1.);
#139 = DIRECTION('',(-4.440892098501E-16,1.,2.22044604925E-16));
#140 = ORIENTED_EDGE('',*,*,#141,.T.);
#141 = EDGE_CURVE('',#134,#142,#144,.T.);
#142 = VERTEX_POINT('',#143);
#143 = CARTESIAN_POINT('',(118.675,1.6,-10.));
#144 = LINE('',#145,#146);
#145 = CARTESIAN_POINT('',(108.475,1.6,-10.));
#146 = VECTOR('',#147,1.);
#147 = DIRECTION('',(1.,4.440892098501E-16,-2.22044604925E-16));
#148 = ORIENTED_EDGE('',*,*,#149,.T.);
#149 = EDGE_CURVE('',#142,#124,#150,.T.);
#150 = LINE('',#151,#152);
#151 = CARTESIAN_POINT('',(118.675,1.6,-10.));
#152 = VECTOR('',#153,1.);
#153 = DIRECTION('',(4.440892098501E-16,-1.,-2.22044604925E-16));
#154 = FACE_BOUND('',#155,.F.);
#155 = EDGE_LOOP('',(#156,#166,#174,#182));
#156 = ORIENTED_EDGE('',*,*,#157,.T.);
#157 = EDGE_CURVE('',#158,#160,#162,.T.);
#158 = VERTEX_POINT('',#159);
#159 = CARTESIAN_POINT('',(98.025,-1.6,-10.));
#160 = VERTEX_POINT('',#161);
#161 = CARTESIAN_POINT('',(87.825,-1.6,-10.));
#162 = LINE('',#163,#164);
#163 = CARTESIAN_POINT('',(98.025,-1.6,-10.));
#164 = VECTOR('',#165,1.);
#165 = DIRECTION('',(-1.,-4.440892098501E-16,2.22044604925E-16));
#166 = ORIENTED_EDGE('',*,*,#167,.T.);
#167 = EDGE_CURVE('',#160,#168,#170,.T.);
#168 = VERTEX_POINT('',#169);
#169 = CARTESIAN_POINT('',(87.825,1.6,-10.));
#170 = LINE('',#171,#172);
#171 = CARTESIAN_POINT('',(87.825,-1.6,-10.));
#172 = VECTOR('',#173,1.);
#173 = DIRECTION('',(-4.440892098501E-16,1.,2.22044604925E-16));
#174 = ORIENTED_EDGE('',*,*,#175,.T.);
#175 = EDGE_CURVE('',#168,#176,#178,.T.);
#176 = VERTEX_POINT('',#177);
#177 = CARTESIAN_POINT('',(98.025,1.6,-10.));
#178 = LINE('',#179,#180);
#179 = CARTESIAN_POINT('',(87.825,1.6,-10.));
#180 = VECTOR('',#181,1.);
#181 = DIRECTION('',(1.,4.440892098501E-16,-2.22044604925E-16));
#182 = ORIENTED_EDGE('',*,*,#183,.T.);
#183 = EDGE_CURVE('',#176,#158,#184,.T.);
#184 = LINE('',#185,#186);
#185 = CARTESIAN_POINT('',(98.025,1.6,-10.));
#186 = VECTOR('',#187,1.);
#187 = DIRECTION('',(4.440892098501E-16,-1.,-2.22044604925E-16));
#188 = FACE_BOUND('',#189,.F.);
#189 = EDGE_LOOP('',(#190,#200,#208,#216));
#190 = ORIENTED_EDGE('',*,*,#191,.T.);
#191 = EDGE_CURVE('',#192,#194,#196,.T.);
#192 = VERTEX_POINT('',#193);
#193 = CARTESIAN_POINT('',(56.725,-1.6,-10.));
#194 = VERTEX_POINT('',#195);
#195 = CARTESIAN_POINT('',(46.525,-1.6,-10.));
#196 = LINE('',#197,#198);
#197 = CARTESIAN_POINT('',(56.725,-1.6,-10.));
#198 = VECTOR('',#199,1.);
#199 = DIRECTION('',(-1.,-4.440892098501E-16,2.22044604925E-16));
#200 = ORIENTED_EDGE('',*,*,#201,.T.);
#201 = EDGE_CURVE('',#194,#202,#204,.T.);
#202 = VERTEX_POINT('',#203);
#203 = CARTESIAN_POINT('',(46.525,1.6,-10.));
#204 = LINE('',#205,#206);
#205 = CARTESIAN_POINT('',(46.525,-1.6,-10.));
#206 = VECTOR('',#207,1.);
#207 = DIRECTION('',(-4.440892098501E-16,1.,2.22044604925E-16));
#208 = ORIENTED_EDGE('',*,*,#209,.T.);
#209 = EDGE_CURVE('',#202,#210,#212,.T.);
#210 = VERTEX_POINT('',#211);
#211 = CARTESIAN_POINT('',(56.725,1.6,-10.));
#212 = LINE('',#213,#214);
#213 = CARTESIAN_POINT('',(46.525,1.6,-10.));
#214 = VECTOR('',#215,1.);
#215 = DIRECTION('',(1.,4.440892098501E-16,-2.22044604925E-16));
#216 = ORIENTED_EDGE('',*,*,#217,.T.);
#217 = EDGE_CURVE('',#210,#192,#218,.T.);
#218 = LINE('',#219,#220);
#219 = CARTESIAN_POINT('',(56.725,1.6,-10.));
#220 = VECTOR('',#221,1.);
#221 = DIRECTION('',(4.440892098501E-16,-1.,-2.22044604925E-16));
#222 = FACE_BOUND('',#223,.F.);
#223 = EDGE_LOOP('',(#224,#234,#242,#250));
#224 = ORIENTED_EDGE('',*,*,#225,.T.);
#225 = EDGE_CURVE('',#226,#228,#230,.T.);
#226 = VERTEX_POINT('',#227);
#227 = CARTESIAN_POINT('',(36.075,-1.6,-10.));
#228 = VERTEX_POINT('',#229);
#229 = CARTESIAN_POINT('',(25.875,-1.6,-10.));
#230 = LINE('',#231,#232);
#231 = CARTESIAN_POINT('',(36.075,-1.6,-10.));
#232 = VECTOR('',#233,1.);
#233 = DIRECTION('',(-1.,-4.440892098501E-16,2.22044604925E-16));
#234 = ORIENTED_EDGE('',*,*,#235,.T.);
#235 = EDGE_CURVE('',#228,#236,#238,.T.);
#236 = VERTEX_POINT('',#237);
#237 = CARTESIAN_POINT('',(25.875,1.6,-10.));
#238 = LINE('',#239,#240);
#239 = CARTESIAN_POINT('',(25.875,-1.6,-10.));
#240 = VECTOR('',#241,1.);
#241 = DIRECTION('',(-4.440892098501E-16,1.,2.22044604925E-16));
#242 = ORIENTED_EDGE('',*,*,#243,.T.);
#243 = EDGE_CURVE('',#236,#244,#246,.T.);
#244 = VERTEX_POINT('',#245);
#245 = CARTESIAN_POINT('',(36.075,1.6,-10.));
#246 = LINE('',#247,#248);
#247 = CARTESIAN_POINT('',(25.875,1.6,-10.));
#248 = VECTOR('',#249,1.);
#249 = DIRECTION('',(1.,4.440892098501E-16,-2.22044604925E-16));
#250 = ORIENTED_EDGE('',*,*,#251,.T.);
#251 = EDGE_CURVE('',#244,#226,#252,.T.);
#252 = LINE('',#253,#254);
#253 = CARTESIAN_POINT('',(36.075,1.6,-10.));
#254 = VECTOR('',#255,1.);
#255 = DIRECTION('',(4.440892098501E-16,-1.,-2.22044604925E-16));
#256 = FACE_BOUND('',#257,.F.);
#257 = EDGE_LOOP('',(#258,#268,#276,#284));
#258 = ORIENTED_EDGE('',*,*,#259,.T.);
#259 = EDGE_CURVE('',#260,#262,#264,.T.);
#260 = VERTEX_POINT('',#261);
#261 = CARTESIAN_POINT('',(15.425,-1.6,-10.));
#262 = VERTEX_POINT('',#263);
#263 = CARTESIAN_POINT('',(5.225,-1.6,-10.));
#264 = LINE('',#265,#266);
#265 = CARTESIAN_POINT('',(15.425,-1.6,-10.));
#266 = VECTOR('',#267,1.);
#267 = DIRECTION('',(-1.,-4.440892098501E-16,2.22044604925E-16));
#268 = ORIENTED_EDGE('',*,*,#269,.T.);
#269 = EDGE_CURVE('',#262,#270,#272,.T.);
#270 = VERTEX_POINT('',#271);
#271 = CARTESIAN_POINT('',(5.225,1.6,-10.));
#272 = LINE('',#273,#274);
#273 = CARTESIAN_POINT('',(5.225,-1.6,-10.));
#274 = VECTOR('',#275,1.);
#275 = DIRECTION('',(-4.440892098501E-16,1.,2.22044604925E-16));
#276 = ORIENTED_EDGE('',*,*,#277,.T.);
#277 = EDGE_CURVE('',#270,#278,#280,.T.);
#278 = VERTEX_POINT('',#279);
#279 = CARTESIAN_POINT('',(15.425,1.6,-10.));
#280 = LINE('',#281,#282);
#281 = CARTESIAN_POINT('',(5.225,1.6,-10.));
#282 = VECTOR('',#283,1.);
#283 = DIRECTION('',(1.,4.440892098501E-16,-2.22044604925E-16));
#284 = ORIENTED_EDGE('',*,*,#285,.T.);
#285 = EDGE_CURVE('',#278,#260,#286,.T.);
#286 = LINE('',#287,#288);
#287 = CARTESIAN_POINT('',(15.425,1.6,-10.));
#288 = VECTOR('',#289,1.);
#289 = DIRECTION('',(4.440892098501E-16,-1.,-2.22044604925E-16));
#290 = FACE_BOUND('',#291,.F.);
#291 = EDGE_LOOP('',(#292,#302,#310,#318));
#292 = ORIENTED_EDGE('',*,*,#293,.T.);
#293 = EDGE_CURVE('',#294,#296,#298,.T.);
#294 = VERTEX_POINT('',#295);
#295 = CARTESIAN_POINT('',(77.375,-1.6,-10.));
#296 = VERTEX_POINT('',#297);
#297 = CARTESIAN_POINT('',(67.175,-1.6,-10.));
#298 = LINE('',#299,#300);
#299 = CARTESIAN_POINT('',(77.375,-1.6,-10.));
#300 = VECTOR('',#301,1.);
#301 = DIRECTION('',(-1.,-4.440892098501E-16,2.22044604925E-16));
#302 = ORIENTED_EDGE('',*,*,#303,.T.);
#303 = EDGE_CURVE('',#296,#304,#306,.T.);
#304 = VERTEX_POINT('',#305);
#305 = CARTESIAN_POINT('',(67.175,1.6,-10.));
#306 = LINE('',#307,#308);
#307 = CARTESIAN_POINT('',(67.175,-1.6,-10.));
#308 = VECTOR('',#309,1.);
#309 = DIRECTION('',(-4.440892098501E-16,1.,2.22044604925E-16));
#310 = ORIENTED_EDGE('',*,*,#311,.T.);
#311 = EDGE_CURVE('',#304,#312,#314,.T.);
#312 = VERTEX_POINT('',#313);
#313 = CARTESIAN_POINT('',(77.375,1.6,-10.));
#314 = LINE('',#315,#316);
#315 = CARTESIAN_POINT('',(67.175,1.6,-10.));
#316 = VECTOR('',#317,1.);
#317 = DIRECTION('',(1.,4.440892098501E-16,-2.22044604925E-16));
#318 = ORIENTED_EDGE('',*,*,#319,.T.);
#319 = EDGE_CURVE('',#312,#294,#320,.T.);
#320 = LINE('',#321,#322);
#321 = CARTESIAN_POINT('',(77.375,1.6,-10.));
#322 = VECTOR('',#323,1.);
#323 = DIRECTION('',(4.440892098501E-16,-1.,-2.22044604925E-16));
#324 = PLANE('',#325);
#325 = AXIS2_PLACEMENT_3D('',#326,#327,#328);
#326 = CARTESIAN_POINT('',(6.661338147751E-15,-10.,-10.));
#327 = DIRECTION('',(2.22044604925E-16,-2.22044604925E-16,1.));
#328 = DIRECTION('',(-4.440892098501E-16,1.,2.22044604925E-16));
#329 = ADVANCED_FACE('',(#330),#355,.F.);
#330 = FACE_BOUND('',#331,.F.);
#331 = EDGE_LOOP('',(#332,#333,#341,#349));
#332 = ORIENTED_EDGE('',*,*,#39,.T.);
#333 = ORIENTED_EDGE('',*,*,#334,.T.);
#334 = EDGE_CURVE('',#32,#335,#337,.T.);
#335 = VERTEX_POINT('',#336);
#336 = CARTESIAN_POINT('',(165.2,10.,-7.));
#337 = LINE('',#338,#339);
#338 = CARTESIAN_POINT('',(165.2,10.,-10.));
#339 = VECTOR('',#340,1.);
#340 = DIRECTION('',(2.22044604925E-16,-2.22044604925E-16,1.));
#341 = ORIENTED_EDGE('',*,*,#342,.F.);
#342 = EDGE_CURVE('',#343,#335,#345,.T.);
#343 = VERTEX_POINT('',#344);
#344 = CARTESIAN_POINT('',(-1.554312234475E-15,10.,-7.));
#345 = LINE('',#346,#347);
#346 = CARTESIAN_POINT('',(-1.554312234475E-15,10.,-7.));
#347 = VECTOR('',#348,1.);
#348 = DIRECTION('',(1.,4.440892098501E-16,-2.22044604925E-16));
#349 = ORIENTED_EDGE('',*,*,#350,.F.);
#350 = EDGE_CURVE('',#40,#343,#351,.T.);
#351 = LINE('',#352,#353);
#352 = CARTESIAN_POINT('',(-2.22044604925E-15,10.,-10.));
#353 = VECTOR('',#354,1.);
#354 = DIRECTION('',(2.22044604925E-16,-2.22044604925E-16,1.));
#355 = PLANE('',#356);
#356 = AXIS2_PLACEMENT_3D('',#357,#358,#359);
#357 = CARTESIAN_POINT('',(-2.22044604925E-15,10.,-10.));
#358 = DIRECTION('',(4.440892098501E-16,-1.,-2.22044604925E-16));
#359 = DIRECTION('',(2.22044604925E-16,-2.22044604925E-16,1.));
#360 = ADVANCED_FACE('',(#361),#395,.F.);
#361 = FACE_BOUND('',#362,.F.);
#362 = EDGE_LOOP('',(#363,#373,#381,#389));
#363 = ORIENTED_EDGE('',*,*,#364,.T.);
#364 = EDGE_CURVE('',#365,#367,#369,.T.);
#365 = VERTEX_POINT('',#366);
#366 = CARTESIAN_POINT('',(0.,2.5,-2.695675721031));
#367 = VERTEX_POINT('',#368);
#368 = CARTESIAN_POINT('',(165.2,2.5,-2.695675721031));
#369 = LINE('',#370,#371);
#370 = CARTESIAN_POINT('',(0.,2.5,-2.695675721031));
#371 = VECTOR('',#372,1.);
#372 = DIRECTION('',(1.,0.,0.));
#373 = ORIENTED_EDGE('',*,*,#374,.T.);
#374 = EDGE_CURVE('',#367,#375,#377,.T.);
#375 = VERTEX_POINT('',#376);
#376 = CARTESIAN_POINT('',(165.2,2.5,-0.5));
#377 = LINE('',#378,#379);
#378 = CARTESIAN_POINT('',(165.2,2.5,-2.695675721031));
#379 = VECTOR('',#380,1.);
#380 = DIRECTION('',(0.,0.,1.));
#381 = ORIENTED_EDGE('',*,*,#382,.F.);
#382 = EDGE_CURVE('',#383,#375,#385,.T.);
#383 = VERTEX_POINT('',#384);
#384 = CARTESIAN_POINT('',(0.,2.5,-0.5));
#385 = LINE('',#386,#387);
#386 = CARTESIAN_POINT('',(0.,2.5,-0.5));
#387 = VECTOR('',#388,1.);
#388 = DIRECTION('',(1.,0.,0.));
#389 = ORIENTED_EDGE('',*,*,#390,.F.);
#390 = EDGE_CURVE('',#365,#383,#391,.T.);
#391 = LINE('',#392,#393);
#392 = CARTESIAN_POINT('',(0.,2.5,-2.695675721031));
#393 = VECTOR('',#394,1.);
#394 = DIRECTION('',(0.,0.,1.));
#395 = PLANE('',#396);
#396 = AXIS2_PLACEMENT_3D('',#397,#398,#399);
#397 = CARTESIAN_POINT('',(0.,2.5,-2.695675721031));
#398 = DIRECTION('',(0.,-1.,0.));
#399 = DIRECTION('',(0.,0.,1.));
#400 = ADVANCED_FACE('',(#401),#428,.F.);
#401 = FACE_BOUND('',#402,.T.);
#402 = EDGE_LOOP('',(#403,#404,#413,#421));
#403 = ORIENTED_EDGE('',*,*,#364,.T.);
#404 = ORIENTED_EDGE('',*,*,#405,.T.);
#405 = EDGE_CURVE('',#367,#406,#408,.T.);
#406 = VERTEX_POINT('',#407);
#407 = CARTESIAN_POINT('',(165.2,4.726391461858,-5.594214978953));
#408 = CIRCLE('',#409,3.);
#409 = AXIS2_PLACEMENT_3D('',#410,#411,#412);
#410 = CARTESIAN_POINT('',(165.2,5.5,-2.695675721031));
#411 = DIRECTION('',(1.,0.,0.));
#412 = DIRECTION('',(0.,1.,0.));
#413 = ORIENTED_EDGE('',*,*,#414,.F.);
#414 = EDGE_CURVE('',#415,#406,#417,.T.);
#415 = VERTEX_POINT('',#416);
#416 = CARTESIAN_POINT('',(0.,4.726391461858,-5.594214978953));
#417 = LINE('',#418,#419);
#418 = CARTESIAN_POINT('',(0.,4.726391461858,-5.594214978953));
#419 = VECTOR('',#420,1.);
#420 = DIRECTION('',(1.,0.,0.));
#421 = ORIENTED_EDGE('',*,*,#422,.F.);
#422 = EDGE_CURVE('',#365,#415,#423,.T.);
#423 = CIRCLE('',#424,3.);
#424 = AXIS2_PLACEMENT_3D('',#425,#426,#427);
#425 = CARTESIAN_POINT('',(0.,5.5,-2.695675721031));
#426 = DIRECTION('',(1.,0.,0.));
#427 = DIRECTION('',(0.,1.,0.));
#428 = CYLINDRICAL_SURFACE('',#429,3.);
#429 = AXIS2_PLACEMENT_3D('',#430,#431,#432);
#430 = CARTESIAN_POINT('',(0.,5.5,-2.695675721031));
#431 = DIRECTION('',(-1.,-0.,-0.));
#432 = DIRECTION('',(0.,1.,0.));
#433 = ADVANCED_FACE('',(#434),#461,.T.);
#434 = FACE_BOUND('',#435,.F.);
#435 = EDGE_LOOP('',(#436,#437,#446,#454));
#436 = ORIENTED_EDGE('',*,*,#382,.T.);
#437 = ORIENTED_EDGE('',*,*,#438,.T.);
#438 = EDGE_CURVE('',#375,#439,#441,.T.);
#439 = VERTEX_POINT('',#440);
#440 = CARTESIAN_POINT('',(165.2,2.,0.));
#441 = CIRCLE('',#442,0.5);
#442 = AXIS2_PLACEMENT_3D('',#443,#444,#445);
#443 = CARTESIAN_POINT('',(165.2,2.,-0.5));
#444 = DIRECTION('',(1.,0.,0.));
#445 = DIRECTION('',(0.,1.,0.));
#446 = ORIENTED_EDGE('',*,*,#447,.F.);
#447 = EDGE_CURVE('',#448,#439,#450,.T.);
#448 = VERTEX_POINT('',#449);
#449 = CARTESIAN_POINT('',(0.,2.,0.));
#450 = LINE('',#451,#452);
#451 = CARTESIAN_POINT('',(0.,2.,0.));
#452 = VECTOR('',#453,1.);
#453 = DIRECTION('',(1.,0.,0.));
#454 = ORIENTED_EDGE('',*,*,#455,.F.);
#455 = EDGE_CURVE('',#383,#448,#456,.T.);
#456 = CIRCLE('',#457,0.5);
#457 = AXIS2_PLACEMENT_3D('',#458,#459,#460);
#458 = CARTESIAN_POINT('',(0.,2.,-0.5));
#459 = DIRECTION('',(1.,0.,0.));
#460 = DIRECTION('',(0.,1.,0.));
#461 = CYLINDRICAL_SURFACE('',#462,0.5);
#462 = AXIS2_PLACEMENT_3D('',#463,#464,#465);
#463 = CARTESIAN_POINT('',(0.,2.,-0.5));
#464 = DIRECTION('',(-1.,-0.,-0.));
#465 = DIRECTION('',(0.,1.,0.));
#466 = ADVANCED_FACE('',(#467),#492,.F.);
#467 = FACE_BOUND('',#468,.F.);
#468 = EDGE_LOOP('',(#469,#479,#485,#486));
#469 = ORIENTED_EDGE('',*,*,#470,.T.);
#470 = EDGE_CURVE('',#471,#473,#475,.T.);
#471 = VERTEX_POINT('',#472);
#472 = CARTESIAN_POINT('',(0.,9.9935555,-7.));
#473 = VERTEX_POINT('',#474);
#474 = CARTESIAN_POINT('',(165.2,9.9935555,-7.));
#475 = LINE('',#476,#477);
#476 = CARTESIAN_POINT('',(0.,9.9935555,-7.));
#477 = VECTOR('',#478,1.);
#478 = DIRECTION('',(1.,0.,0.));
#479 = ORIENTED_EDGE('',*,*,#480,.T.);
#480 = EDGE_CURVE('',#473,#406,#481,.T.);
#481 = LINE('',#482,#483);
#482 = CARTESIAN_POINT('',(165.2,9.9935555,-7.));
#483 = VECTOR('',#484,1.);
#484 = DIRECTION('',(0.,-0.966179752641,0.257869512714));
#485 = ORIENTED_EDGE('',*,*,#414,.F.);
#486 = ORIENTED_EDGE('',*,*,#487,.F.);
#487 = EDGE_CURVE('',#471,#415,#488,.T.);
#488 = LINE('',#489,#490);
#489 = CARTESIAN_POINT('',(0.,9.9935555,-7.));
#490 = VECTOR('',#491,1.);
#491 = DIRECTION('',(0.,-0.966179752641,0.257869512714));
#492 = PLANE('',#493);
#493 = AXIS2_PLACEMENT_3D('',#494,#495,#496);
#494 = CARTESIAN_POINT('',(0.,9.9935555,-7.));
#495 = DIRECTION('',(0.,-0.257869512714,-0.966179752641));
#496 = DIRECTION('',(0.,-0.966179752641,0.257869512714));
#497 = ADVANCED_FACE('',(#498),#523,.F.);
#498 = FACE_BOUND('',#499,.F.);
#499 = EDGE_LOOP('',(#500,#501,#509,#517));
#500 = ORIENTED_EDGE('',*,*,#447,.T.);
#501 = ORIENTED_EDGE('',*,*,#502,.T.);
#502 = EDGE_CURVE('',#439,#503,#505,.T.);
#503 = VERTEX_POINT('',#504);
#504 = CARTESIAN_POINT('',(165.2,-2.,0.));
#505 = LINE('',#506,#507);
#506 = CARTESIAN_POINT('',(165.2,2.,0.));
#507 = VECTOR('',#508,1.);
#508 = DIRECTION('',(0.,-1.,0.));
#509 = ORIENTED_EDGE('',*,*,#510,.F.);
#510 = EDGE_CURVE('',#511,#503,#513,.T.);
#511 = VERTEX_POINT('',#512);
#512 = CARTESIAN_POINT('',(0.,-2.,0.));
#513 = LINE('',#514,#515);
#514 = CARTESIAN_POINT('',(0.,-2.,0.));
#515 = VECTOR('',#516,1.);
#516 = DIRECTION('',(1.,0.,0.));
#517 = ORIENTED_EDGE('',*,*,#518,.F.);
#518 = EDGE_CURVE('',#448,#511,#519,.T.);
#519 = LINE('',#520,#521);
#520 = CARTESIAN_POINT('',(0.,2.,0.));
#521 = VECTOR('',#522,1.);
#522 = DIRECTION('',(0.,-1.,0.));
#523 = PLANE('',#524);
#524 = AXIS2_PLACEMENT_3D('',#525,#526,#527);
#525 = CARTESIAN_POINT('',(0.,2.,0.));
#526 = DIRECTION('',(0.,0.,-1.));
#527 = DIRECTION('',(0.,-1.,0.));
#528 = ADVANCED_FACE('',(#529),#556,.T.);
#529 = FACE_BOUND('',#530,.F.);
#530 = EDGE_LOOP('',(#531,#532,#541,#549));
#531 = ORIENTED_EDGE('',*,*,#510,.T.);
#532 = ORIENTED_EDGE('',*,*,#533,.T.);
#533 = EDGE_CURVE('',#503,#534,#536,.T.);
#534 = VERTEX_POINT('',#535);
#535 = CARTESIAN_POINT('',(165.2,-2.5,-0.5));
#536 = CIRCLE('',#537,0.5);
#537 = AXIS2_PLACEMENT_3D('',#538,#539,#540);
#538 = CARTESIAN_POINT('',(165.2,-2.,-0.5));
#539 = DIRECTION('',(1.,0.,0.));
#540 = DIRECTION('',(0.,1.,0.));
#541 = ORIENTED_EDGE('',*,*,#542,.F.);
#542 = EDGE_CURVE('',#543,#534,#545,.T.);
#543 = VERTEX_POINT('',#544);
#544 = CARTESIAN_POINT('',(0.,-2.5,-0.5));
#545 = LINE('',#546,#547);
#546 = CARTESIAN_POINT('',(0.,-2.5,-0.5));
#547 = VECTOR('',#548,1.);
#548 = DIRECTION('',(1.,0.,0.));
#549 = ORIENTED_EDGE('',*,*,#550,.F.);
#550 = EDGE_CURVE('',#511,#543,#551,.T.);
#551 = CIRCLE('',#552,0.5);
#552 = AXIS2_PLACEMENT_3D('',#553,#554,#555);
#553 = CARTESIAN_POINT('',(0.,-2.,-0.5));
#554 = DIRECTION('',(1.,0.,0.));
#555 = DIRECTION('',(0.,1.,0.));
#556 = CYLINDRICAL_SURFACE('',#557,0.5);
#557 = AXIS2_PLACEMENT_3D('',#558,#559,#560);
#558 = CARTESIAN_POINT('',(0.,-2.,-0.5));
#559 = DIRECTION('',(-1.,-0.,-0.));
#560 = DIRECTION('',(0.,1.,0.));
#561 = ADVANCED_FACE('',(#562),#587,.F.);
#562 = FACE_BOUND('',#563,.F.);
#563 = EDGE_LOOP('',(#564,#565,#573,#581));
#564 = ORIENTED_EDGE('',*,*,#542,.T.);
#565 = ORIENTED_EDGE('',*,*,#566,.T.);
#566 = EDGE_CURVE('',#534,#567,#569,.T.);
#567 = VERTEX_POINT('',#568);
#568 = CARTESIAN_POINT('',(165.2,-2.5,-2.695675721031));
#569 = LINE('',#570,#571);
#570 = CARTESIAN_POINT('',(165.2,-2.5,-0.5));
#571 = VECTOR('',#572,1.);
#572 = DIRECTION('',(0.,0.,-1.));
#573 = ORIENTED_EDGE('',*,*,#574,.F.);
#574 = EDGE_CURVE('',#575,#567,#577,.T.);
#575 = VERTEX_POINT('',#576);
#576 = CARTESIAN_POINT('',(0.,-2.5,-2.695675721031));
#577 = LINE('',#578,#579);
#578 = CARTESIAN_POINT('',(0.,-2.5,-2.695675721031));
#579 = VECTOR('',#580,1.);
#580 = DIRECTION('',(1.,0.,0.));
#581 = ORIENTED_EDGE('',*,*,#582,.F.);
#582 = EDGE_CURVE('',#543,#575,#583,.T.);
#583 = LINE('',#584,#585);
#584 = CARTESIAN_POINT('',(0.,-2.5,-0.5));
#585 = VECTOR('',#586,1.);
#586 = DIRECTION('',(0.,0.,-1.));
#587 = PLANE('',#588);
#588 = AXIS2_PLACEMENT_3D('',#589,#590,#591);
#589 = CARTESIAN_POINT('',(0.,-2.5,-0.5));
#590 = DIRECTION('',(0.,1.,0.));
#591 = DIRECTION('',(0.,0.,-1.));
#592 = ADVANCED_FACE('',(#593),#620,.F.);
#593 = FACE_BOUND('',#594,.T.);
#594 = EDGE_LOOP('',(#595,#605,#612,#613));
#595 = ORIENTED_EDGE('',*,*,#596,.T.);
#596 = EDGE_CURVE('',#597,#599,#601,.T.);
#597 = VERTEX_POINT('',#598);
#598 = CARTESIAN_POINT('',(0.,-4.726391461858,-5.594214978953));
#599 = VERTEX_POINT('',#600);
#600 = CARTESIAN_POINT('',(165.2,-4.726391461858,-5.594214978953));
#601 = LINE('',#602,#603);
#602 = CARTESIAN_POINT('',(0.,-4.726391461858,-5.594214978953));
#603 = VECTOR('',#604,1.);
#604 = DIRECTION('',(1.,0.,0.));
#605 = ORIENTED_EDGE('',*,*,#606,.T.);
#606 = EDGE_CURVE('',#599,#567,#607,.T.);
#607 = CIRCLE('',#608,3.);
#608 = AXIS2_PLACEMENT_3D('',#609,#610,#611);
#609 = CARTESIAN_POINT('',(165.2,-5.5,-2.695675721031));
#610 = DIRECTION('',(1.,0.,0.));
#611 = DIRECTION('',(0.,1.,0.));
#612 = ORIENTED_EDGE('',*,*,#574,.F.);
#613 = ORIENTED_EDGE('',*,*,#614,.F.);
#614 = EDGE_CURVE('',#597,#575,#615,.T.);
#615 = CIRCLE('',#616,3.);
#616 = AXIS2_PLACEMENT_3D('',#617,#618,#619);
#617 = CARTESIAN_POINT('',(0.,-5.5,-2.695675721031));
#618 = DIRECTION('',(1.,0.,0.));
#619 = DIRECTION('',(0.,1.,0.));
#620 = CYLINDRICAL_SURFACE('',#621,3.);
#621 = AXIS2_PLACEMENT_3D('',#622,#623,#624);
#622 = CARTESIAN_POINT('',(0.,-5.5,-2.695675721031));
#623 = DIRECTION('',(-1.,-0.,-0.));
#624 = DIRECTION('',(0.,1.,0.));
#625 = ADVANCED_FACE('',(#626),#651,.F.);
#626 = FACE_BOUND('',#627,.F.);
#627 = EDGE_LOOP('',(#628,#629,#637,#645));
#628 = ORIENTED_EDGE('',*,*,#596,.T.);
#629 = ORIENTED_EDGE('',*,*,#630,.T.);
#630 = EDGE_CURVE('',#599,#631,#633,.T.);
#631 = VERTEX_POINT('',#632);
#632 = CARTESIAN_POINT('',(165.2,-9.9935555,-7.));
#633 = LINE('',#634,#635);
#634 = CARTESIAN_POINT('',(165.2,-4.726391461858,-5.594214978953));
#635 = VECTOR('',#636,1.);
#636 = DIRECTION('',(0.,-0.966179752641,-0.257869512714));
#637 = ORIENTED_EDGE('',*,*,#638,.F.);
#638 = EDGE_CURVE('',#639,#631,#641,.T.);
#639 = VERTEX_POINT('',#640);
#640 = CARTESIAN_POINT('',(0.,-9.9935555,-7.));
#641 = LINE('',#642,#643);
#642 = CARTESIAN_POINT('',(0.,-9.9935555,-7.));
#643 = VECTOR('',#644,1.);
#644 = DIRECTION('',(1.,0.,0.));
#645 = ORIENTED_EDGE('',*,*,#646,.F.);
#646 = EDGE_CURVE('',#597,#639,#647,.T.);
#647 = LINE('',#648,#649);
#648 = CARTESIAN_POINT('',(0.,-4.726391461858,-5.594214978953));
#649 = VECTOR('',#650,1.);
#650 = DIRECTION('',(0.,-0.966179752641,-0.257869512714));
#651 = PLANE('',#652);
#652 = AXIS2_PLACEMENT_3D('',#653,#654,#655);
#653 = CARTESIAN_POINT('',(0.,-4.726391461858,-5.594214978953));
#654 = DIRECTION('',(0.,0.257869512714,-0.966179752641));
#655 = DIRECTION('',(0.,-0.966179752641,-0.257869512714));
#656 = ADVANCED_FACE('',(#657),#673,.F.);
#657 = FACE_BOUND('',#658,.F.);
#658 = EDGE_LOOP('',(#659,#665,#666,#672));
#659 = ORIENTED_EDGE('',*,*,#660,.F.);
#660 = EDGE_CURVE('',#343,#471,#661,.T.);
#661 = LINE('',#662,#663);
#662 = CARTESIAN_POINT('',(-1.554312234475E-15,10.,-7.));
#663 = VECTOR('',#664,1.);
#664 = DIRECTION('',(4.440892098501E-16,-1.,-2.22044604925E-16));
#665 = ORIENTED_EDGE('',*,*,#342,.T.);
#666 = ORIENTED_EDGE('',*,*,#667,.T.);
#667 = EDGE_CURVE('',#335,#473,#668,.T.);
#668 = LINE('',#669,#670);
#669 = CARTESIAN_POINT('',(165.2,10.,-7.));
#670 = VECTOR('',#671,1.);
#671 = DIRECTION('',(4.440892098501E-16,-1.,-2.22044604925E-16));
#672 = ORIENTED_EDGE('',*,*,#470,.F.);
#673 = PLANE('',#674);
#674 = AXIS2_PLACEMENT_3D('',#675,#676,#677);
#675 = CARTESIAN_POINT('',(-1.554312234475E-15,10.,-7.));
#676 = DIRECTION('',(-2.22044604925E-16,2.22044604925E-16,-1.));
#677 = DIRECTION('',(4.440892098501E-16,-1.,-2.22044604925E-16));
#678 = ADVANCED_FACE('',(#679),#704,.F.);
#679 = FACE_BOUND('',#680,.F.);
#680 = EDGE_LOOP('',(#681,#689,#690,#698));
#681 = ORIENTED_EDGE('',*,*,#682,.F.);
#682 = EDGE_CURVE('',#639,#683,#685,.T.);
#683 = VERTEX_POINT('',#684);
#684 = CARTESIAN_POINT('',(7.327471962526E-15,-10.,-7.));
#685 = LINE('',#686,#687);
#686 = CARTESIAN_POINT('',(-1.554312234475E-15,10.,-7.));
#687 = VECTOR('',#688,1.);
#688 = DIRECTION('',(4.440892098501E-16,-1.,-2.22044604925E-16));
#689 = ORIENTED_EDGE('',*,*,#638,.T.);
#690 = ORIENTED_EDGE('',*,*,#691,.T.);
#691 = EDGE_CURVE('',#631,#692,#694,.T.);
#692 = VERTEX_POINT('',#693);
#693 = CARTESIAN_POINT('',(165.2,-10.,-7.));
#694 = LINE('',#695,#696);
#695 = CARTESIAN_POINT('',(165.2,10.,-7.));
#696 = VECTOR('',#697,1.);
#697 = DIRECTION('',(4.440892098501E-16,-1.,-2.22044604925E-16));
#698 = ORIENTED_EDGE('',*,*,#699,.F.);
#699 = EDGE_CURVE('',#683,#692,#700,.T.);
#700 = LINE('',#701,#702);
#701 = CARTESIAN_POINT('',(7.327471962526E-15,-10.,-7.));
#702 = VECTOR('',#703,1.);
#703 = DIRECTION('',(1.,4.440892098501E-16,-2.22044604925E-16));
#704 = PLANE('',#705);
#705 = AXIS2_PLACEMENT_3D('',#706,#707,#708);
#706 = CARTESIAN_POINT('',(-1.554312234475E-15,10.,-7.));
#707 = DIRECTION('',(-2.22044604925E-16,2.22044604925E-16,-1.));
#708 = DIRECTION('',(4.440892098501E-16,-1.,-2.22044604925E-16));
#709 = ADVANCED_FACE('',(#710),#726,.F.);
#710 = FACE_BOUND('',#711,.F.);
#711 = EDGE_LOOP('',(#712,#713,#719,#720));
#712 = ORIENTED_EDGE('',*,*,#699,.T.);
#713 = ORIENTED_EDGE('',*,*,#714,.T.);
#714 = EDGE_CURVE('',#692,#24,#715,.T.);
#715 = LINE('',#716,#717);
#716 = CARTESIAN_POINT('',(165.2,-10.,-7.));
#717 = VECTOR('',#718,1.);
#718 = DIRECTION('',(-2.22044604925E-16,2.22044604925E-16,-1.));
#719 = ORIENTED_EDGE('',*,*,#21,.F.);
#720 = ORIENTED_EDGE('',*,*,#721,.F.);
#721 = EDGE_CURVE('',#683,#22,#722,.T.);
#722 = LINE('',#723,#724);
#723 = CARTESIAN_POINT('',(7.327471962526E-15,-10.,-7.));
#724 = VECTOR('',#725,1.);
#725 = DIRECTION('',(-2.22044604925E-16,2.22044604925E-16,-1.));
#726 = PLANE('',#727);
#727 = AXIS2_PLACEMENT_3D('',#728,#729,#730);
#728 = CARTESIAN_POINT('',(7.327471962526E-15,-10.,-7.));
#729 = DIRECTION('',(-4.440892098501E-16,1.,2.22044604925E-16));
#730 = DIRECTION('',(-2.22044604925E-16,2.22044604925E-16,-1.));
#731 = ADVANCED_FACE('',(#732),#773,.F.);
#732 = FACE_BOUND('',#733,.F.);
#733 = EDGE_LOOP('',(#734,#735,#743,#751,#759,#767));
#734 = ORIENTED_EDGE('',*,*,#55,.F.);
#735 = ORIENTED_EDGE('',*,*,#736,.T.);
#736 = EDGE_CURVE('',#56,#737,#739,.T.);
#737 = VERTEX_POINT('',#738);
#738 = CARTESIAN_POINT('',(159.975,-1.6,-9.88));
#739 = LINE('',#740,#741);
#740 = CARTESIAN_POINT('',(159.975,-1.6,-10.));
#741 = VECTOR('',#742,1.);
#742 = DIRECTION('',(2.044604925031E-18,-2.22044604925E-16,1.));
#743 = ORIENTED_EDGE('',*,*,#744,.T.);
#744 = EDGE_CURVE('',#737,#745,#747,.T.);
#745 = VERTEX_POINT('',#746);
#746 = CARTESIAN_POINT('',(157.995,-1.6,-7.9));
#747 = LINE('',#748,#749);
#748 = CARTESIAN_POINT('',(159.51,-1.6,-9.415));
#749 = VECTOR('',#750,1.);
#750 = DIRECTION('',(-0.707106781187,-4.710277376051E-16,0.707106781187)
  );
#751 = ORIENTED_EDGE('',*,*,#752,.T.);
#752 = EDGE_CURVE('',#745,#753,#755,.T.);
#753 = VERTEX_POINT('',#754);
#754 = CARTESIAN_POINT('',(151.755,-1.6,-7.9));
#755 = LINE('',#756,#757);
#756 = CARTESIAN_POINT('',(159.975,-1.6,-7.9));
#757 = VECTOR('',#758,1.);
#758 = DIRECTION('',(-1.,-4.440892098501E-16,2.22044604925E-16));
#759 = ORIENTED_EDGE('',*,*,#760,.F.);
#760 = EDGE_CURVE('',#761,#753,#763,.T.);
#761 = VERTEX_POINT('',#762);
#762 = CARTESIAN_POINT('',(149.775,-1.6,-9.88));
#763 = LINE('',#764,#765);
#764 = CARTESIAN_POINT('',(152.79,-1.6,-6.865));
#765 = VECTOR('',#766,1.);
#766 = DIRECTION('',(0.707106781187,1.570092458684E-16,0.707106781187));
#767 = ORIENTED_EDGE('',*,*,#768,.F.);
#768 = EDGE_CURVE('',#58,#761,#769,.T.);
#769 = LINE('',#770,#771);
#770 = CARTESIAN_POINT('',(149.775,-1.6,-10.));
#771 = VECTOR('',#772,1.);
#772 = DIRECTION('',(2.044604925031E-18,-2.22044604925E-16,1.));
#773 = PLANE('',#774);
#774 = AXIS2_PLACEMENT_3D('',#775,#776,#777);
#775 = CARTESIAN_POINT('',(159.975,-1.6,-10.));
#776 = DIRECTION('',(4.440892098501E-16,-1.,-2.22044604925E-16));
#777 = DIRECTION('',(-1.,-4.440892098501E-16,2.044604925031E-18));
#778 = ADVANCED_FACE('',(#779),#797,.F.);
#779 = FACE_BOUND('',#780,.F.);
#780 = EDGE_LOOP('',(#781,#782,#790,#796));
#781 = ORIENTED_EDGE('',*,*,#81,.F.);
#782 = ORIENTED_EDGE('',*,*,#783,.T.);
#783 = EDGE_CURVE('',#74,#784,#786,.T.);
#784 = VERTEX_POINT('',#785);
#785 = CARTESIAN_POINT('',(159.975,1.6,-9.88));
#786 = LINE('',#787,#788);
#787 = CARTESIAN_POINT('',(159.975,1.6,-10.));
#788 = VECTOR('',#789,1.);
#789 = DIRECTION('',(2.044604925031E-18,-2.22044604925E-16,1.));
#790 = ORIENTED_EDGE('',*,*,#791,.T.);
#791 = EDGE_CURVE('',#784,#737,#792,.T.);
#792 = LINE('',#793,#794);
#793 = CARTESIAN_POINT('',(159.975,1.6,-9.88));
#794 = VECTOR('',#795,1.);
#795 = DIRECTION('',(4.440892098501E-16,-1.,-2.22044604925E-16));
#796 = ORIENTED_EDGE('',*,*,#736,.F.);
#797 = PLANE('',#798);
#798 = AXIS2_PLACEMENT_3D('',#799,#800,#801);
#799 = CARTESIAN_POINT('',(159.975,1.6,-10.));
#800 = DIRECTION('',(1.,4.440892098501E-16,-2.044604925031E-18));
#801 = DIRECTION('',(4.440892098501E-16,-1.,-2.22044604925E-16));
#802 = ADVANCED_FACE('',(#803),#837,.F.);
#803 = FACE_BOUND('',#804,.F.);
#804 = EDGE_LOOP('',(#805,#806,#814,#822,#830,#836));
#805 = ORIENTED_EDGE('',*,*,#73,.F.);
#806 = ORIENTED_EDGE('',*,*,#807,.T.);
#807 = EDGE_CURVE('',#66,#808,#810,.T.);
#808 = VERTEX_POINT('',#809);
#809 = CARTESIAN_POINT('',(149.775,1.6,-9.88));
#810 = LINE('',#811,#812);
#811 = CARTESIAN_POINT('',(149.775,1.6,-10.));
#812 = VECTOR('',#813,1.);
#813 = DIRECTION('',(2.044604925031E-18,-2.22044604925E-16,1.));
#814 = ORIENTED_EDGE('',*,*,#815,.T.);
#815 = EDGE_CURVE('',#808,#816,#818,.T.);
#816 = VERTEX_POINT('',#817);
#817 = CARTESIAN_POINT('',(151.755,1.6,-7.9));
#818 = LINE('',#819,#820);
#819 = CARTESIAN_POINT('',(150.24,1.6,-9.415));
#820 = VECTOR('',#821,1.);
#821 = DIRECTION('',(0.707106781187,1.570092458684E-16,0.707106781187));
#822 = ORIENTED_EDGE('',*,*,#823,.T.);
#823 = EDGE_CURVE('',#816,#824,#826,.T.);
#824 = VERTEX_POINT('',#825);
#825 = CARTESIAN_POINT('',(157.995,1.6,-7.9));
#826 = LINE('',#827,#828);
#827 = CARTESIAN_POINT('',(149.775,1.6,-7.9));
#828 = VECTOR('',#829,1.);
#829 = DIRECTION('',(1.,4.440892098501E-16,-2.22044604925E-16));
#830 = ORIENTED_EDGE('',*,*,#831,.F.);
#831 = EDGE_CURVE('',#784,#824,#832,.T.);
#832 = LINE('',#833,#834);
#833 = CARTESIAN_POINT('',(156.96,1.6,-6.865));
#834 = VECTOR('',#835,1.);
#835 = DIRECTION('',(-0.707106781187,-4.710277376051E-16,0.707106781187)
  );
#836 = ORIENTED_EDGE('',*,*,#783,.F.);
#837 = PLANE('',#838);
#838 = AXIS2_PLACEMENT_3D('',#839,#840,#841);
#839 = CARTESIAN_POINT('',(149.775,1.6,-10.));
#840 = DIRECTION('',(-4.440892098501E-16,1.,2.22044604925E-16));
#841 = DIRECTION('',(1.,4.440892098501E-16,-2.044604925031E-18));
#842 = ADVANCED_FACE('',(#843),#854,.F.);
#843 = FACE_BOUND('',#844,.F.);
#844 = EDGE_LOOP('',(#845,#846,#847,#853));
#845 = ORIENTED_EDGE('',*,*,#65,.F.);
#846 = ORIENTED_EDGE('',*,*,#768,.T.);
#847 = ORIENTED_EDGE('',*,*,#848,.T.);
#848 = EDGE_CURVE('',#761,#808,#849,.T.);
#849 = LINE('',#850,#851);
#850 = CARTESIAN_POINT('',(149.775,-1.6,-9.88));
#851 = VECTOR('',#852,1.);
#852 = DIRECTION('',(-4.440892098501E-16,1.,2.22044604925E-16));
#853 = ORIENTED_EDGE('',*,*,#807,.F.);
#854 = PLANE('',#855);
#855 = AXIS2_PLACEMENT_3D('',#856,#857,#858);
#856 = CARTESIAN_POINT('',(149.775,-1.6,-10.));
#857 = DIRECTION('',(-1.,-4.440892098501E-16,2.044604925031E-18));
#858 = DIRECTION('',(-4.440892098501E-16,1.,2.22044604925E-16));
#859 = ADVANCED_FACE('',(#860),#901,.F.);
#860 = FACE_BOUND('',#861,.F.);
#861 = EDGE_LOOP('',(#862,#863,#871,#879,#887,#895));
#862 = ORIENTED_EDGE('',*,*,#89,.F.);
#863 = ORIENTED_EDGE('',*,*,#864,.T.);
#864 = EDGE_CURVE('',#90,#865,#867,.T.);
#865 = VERTEX_POINT('',#866);
#866 = CARTESIAN_POINT('',(139.325,-1.6,-9.88));
#867 = LINE('',#868,#869);
#868 = CARTESIAN_POINT('',(139.325,-1.6,-10.));
#869 = VECTOR('',#870,1.);
#870 = DIRECTION('',(2.044604925031E-18,-2.22044604925E-16,1.));
#871 = ORIENTED_EDGE('',*,*,#872,.T.);
#872 = EDGE_CURVE('',#865,#873,#875,.T.);
#873 = VERTEX_POINT('',#874);
#874 = CARTESIAN_POINT('',(137.345,-1.6,-7.9));
#875 = LINE('',#876,#877);
#876 = CARTESIAN_POINT('',(138.86,-1.6,-9.415));
#877 = VECTOR('',#878,1.);
#878 = DIRECTION('',(-0.707106781187,-4.710277376051E-16,0.707106781187)
  );
#879 = ORIENTED_EDGE('',*,*,#880,.T.);
#880 = EDGE_CURVE('',#873,#881,#883,.T.);
#881 = VERTEX_POINT('',#882);
#882 = CARTESIAN_POINT('',(131.105,-1.6,-7.9));
#883 = LINE('',#884,#885);
#884 = CARTESIAN_POINT('',(139.325,-1.6,-7.9));
#885 = VECTOR('',#886,1.);
#886 = DIRECTION('',(-1.,-4.440892098501E-16,2.22044604925E-16));
#887 = ORIENTED_EDGE('',*,*,#888,.F.);
#888 = EDGE_CURVE('',#889,#881,#891,.T.);
#889 = VERTEX_POINT('',#890);
#890 = CARTESIAN_POINT('',(129.125,-1.6,-9.88));
#891 = LINE('',#892,#893);
#892 = CARTESIAN_POINT('',(132.14,-1.6,-6.865));
#893 = VECTOR('',#894,1.);
#894 = DIRECTION('',(0.707106781187,1.570092458684E-16,0.707106781187));
#895 = ORIENTED_EDGE('',*,*,#896,.F.);
#896 = EDGE_CURVE('',#92,#889,#897,.T.);
#897 = LINE('',#898,#899);
#898 = CARTESIAN_POINT('',(129.125,-1.6,-10.));
#899 = VECTOR('',#900,1.);
#900 = DIRECTION('',(2.044604925031E-18,-2.22044604925E-16,1.));
#901 = PLANE('',#902);
#902 = AXIS2_PLACEMENT_3D('',#903,#904,#905);
#903 = CARTESIAN_POINT('',(139.325,-1.6,-10.));
#904 = DIRECTION('',(4.440892098501E-16,-1.,-2.22044604925E-16));
#905 = DIRECTION('',(-1.,-4.440892098501E-16,2.044604925031E-18));
#906 = ADVANCED_FACE('',(#907),#925,.F.);
#907 = FACE_BOUND('',#908,.F.);
#908 = EDGE_LOOP('',(#909,#910,#918,#924));
#909 = ORIENTED_EDGE('',*,*,#115,.F.);
#910 = ORIENTED_EDGE('',*,*,#911,.T.);
#911 = EDGE_CURVE('',#108,#912,#914,.T.);
#912 = VERTEX_POINT('',#913);
#913 = CARTESIAN_POINT('',(139.325,1.6,-9.88));
#914 = LINE('',#915,#916);
#915 = CARTESIAN_POINT('',(139.325,1.6,-10.));
#916 = VECTOR('',#917,1.);
#917 = DIRECTION('',(2.044604925031E-18,-2.22044604925E-16,1.));
#918 = ORIENTED_EDGE('',*,*,#919,.T.);
#919 = EDGE_CURVE('',#912,#865,#920,.T.);
#920 = LINE('',#921,#922);
#921 = CARTESIAN_POINT('',(139.325,1.6,-9.88));
#922 = VECTOR('',#923,1.);
#923 = DIRECTION('',(4.440892098501E-16,-1.,-2.22044604925E-16));
#924 = ORIENTED_EDGE('',*,*,#864,.F.);
#925 = PLANE('',#926);
#926 = AXIS2_PLACEMENT_3D('',#927,#928,#929);
#927 = CARTESIAN_POINT('',(139.325,1.6,-10.));
#928 = DIRECTION('',(1.,4.440892098501E-16,-2.044604925031E-18));
#929 = DIRECTION('',(4.440892098501E-16,-1.,-2.22044604925E-16));
#930 = ADVANCED_FACE('',(#931),#965,.F.);
#931 = FACE_BOUND('',#932,.F.);
#932 = EDGE_LOOP('',(#933,#934,#942,#950,#958,#964));
#933 = ORIENTED_EDGE('',*,*,#107,.F.);
#934 = ORIENTED_EDGE('',*,*,#935,.T.);
#935 = EDGE_CURVE('',#100,#936,#938,.T.);
#936 = VERTEX_POINT('',#937);
#937 = CARTESIAN_POINT('',(129.125,1.6,-9.88));
#938 = LINE('',#939,#940);
#939 = CARTESIAN_POINT('',(129.125,1.6,-10.));
#940 = VECTOR('',#941,1.);
#941 = DIRECTION('',(2.044604925031E-18,-2.22044604925E-16,1.));
#942 = ORIENTED_EDGE('',*,*,#943,.T.);
#943 = EDGE_CURVE('',#936,#944,#946,.T.);
#944 = VERTEX_POINT('',#945);
#945 = CARTESIAN_POINT('',(131.105,1.6,-7.9));
#946 = LINE('',#947,#948);
#947 = CARTESIAN_POINT('',(129.59,1.6,-9.415));
#948 = VECTOR('',#949,1.);
#949 = DIRECTION('',(0.707106781187,1.570092458684E-16,0.707106781187));
#950 = ORIENTED_EDGE('',*,*,#951,.T.);
#951 = EDGE_CURVE('',#944,#952,#954,.T.);
#952 = VERTEX_POINT('',#953);
#953 = CARTESIAN_POINT('',(137.345,1.6,-7.9));
#954 = LINE('',#955,#956);
#955 = CARTESIAN_POINT('',(129.125,1.6,-7.9));
#956 = VECTOR('',#957,1.);
#957 = DIRECTION('',(1.,4.440892098501E-16,-2.22044604925E-16));
#958 = ORIENTED_EDGE('',*,*,#959,.F.);
#959 = EDGE_CURVE('',#912,#952,#960,.T.);
#960 = LINE('',#961,#962);
#961 = CARTESIAN_POINT('',(136.31,1.6,-6.865));
#962 = VECTOR('',#963,1.);
#963 = DIRECTION('',(-0.707106781187,-4.710277376051E-16,0.707106781187)
  );
#964 = ORIENTED_EDGE('',*,*,#911,.F.);
#965 = PLANE('',#966);
#966 = AXIS2_PLACEMENT_3D('',#967,#968,#969);
#967 = CARTESIAN_POINT('',(129.125,1.6,-10.));
#968 = DIRECTION('',(-4.440892098501E-16,1.,2.22044604925E-16));
#969 = DIRECTION('',(1.,4.440892098501E-16,-2.044604925031E-18));
#970 = ADVANCED_FACE('',(#971),#982,.F.);
#971 = FACE_BOUND('',#972,.F.);
#972 = EDGE_LOOP('',(#973,#974,#975,#981));
#973 = ORIENTED_EDGE('',*,*,#99,.F.);
#974 = ORIENTED_EDGE('',*,*,#896,.T.);
#975 = ORIENTED_EDGE('',*,*,#976,.T.);
#976 = EDGE_CURVE('',#889,#936,#977,.T.);
#977 = LINE('',#978,#979);
#978 = CARTESIAN_POINT('',(129.125,-1.6,-9.88));
#979 = VECTOR('',#980,1.);
#980 = DIRECTION('',(-4.440892098501E-16,1.,2.22044604925E-16));
#981 = ORIENTED_EDGE('',*,*,#935,.F.);
#982 = PLANE('',#983);
#983 = AXIS2_PLACEMENT_3D('',#984,#985,#986);
#984 = CARTESIAN_POINT('',(129.125,-1.6,-10.));
#985 = DIRECTION('',(-1.,-4.440892098501E-16,2.044604925031E-18));
#986 = DIRECTION('',(-4.440892098501E-16,1.,2.22044604925E-16));
#987 = ADVANCED_FACE('',(#988),#1029,.F.);
#988 = FACE_BOUND('',#989,.F.);
#989 = EDGE_LOOP('',(#990,#991,#999,#1007,#1015,#1023));
#990 = ORIENTED_EDGE('',*,*,#123,.F.);
#991 = ORIENTED_EDGE('',*,*,#992,.T.);
#992 = EDGE_CURVE('',#124,#993,#995,.T.);
#993 = VERTEX_POINT('',#994);
#994 = CARTESIAN_POINT('',(118.675,-1.6,-9.88));
#995 = LINE('',#996,#997);
#996 = CARTESIAN_POINT('',(118.675,-1.6,-10.));
#997 = VECTOR('',#998,1.);
#998 = DIRECTION('',(2.044604925031E-18,-2.22044604925E-16,1.));
#999 = ORIENTED_EDGE('',*,*,#1000,.T.);
#1000 = EDGE_CURVE('',#993,#1001,#1003,.T.);
#1001 = VERTEX_POINT('',#1002);
#1002 = CARTESIAN_POINT('',(116.695,-1.6,-7.9));
#1003 = LINE('',#1004,#1005);
#1004 = CARTESIAN_POINT('',(118.21,-1.6,-9.415));
#1005 = VECTOR('',#1006,1.);
#1006 = DIRECTION('',(-0.707106781187,-4.710277376051E-16,0.707106781187
    ));
#1007 = ORIENTED_EDGE('',*,*,#1008,.T.);
#1008 = EDGE_CURVE('',#1001,#1009,#1011,.T.);
#1009 = VERTEX_POINT('',#1010);
#1010 = CARTESIAN_POINT('',(110.455,-1.6,-7.9));
#1011 = LINE('',#1012,#1013);
#1012 = CARTESIAN_POINT('',(118.675,-1.6,-7.9));
#1013 = VECTOR('',#1014,1.);
#1014 = DIRECTION('',(-1.,-4.440892098501E-16,2.22044604925E-16));
#1015 = ORIENTED_EDGE('',*,*,#1016,.F.);
#1016 = EDGE_CURVE('',#1017,#1009,#1019,.T.);
#1017 = VERTEX_POINT('',#1018);
#1018 = CARTESIAN_POINT('',(108.475,-1.6,-9.88));
#1019 = LINE('',#1020,#1021);
#1020 = CARTESIAN_POINT('',(111.49,-1.6,-6.865));
#1021 = VECTOR('',#1022,1.);
#1022 = DIRECTION('',(0.707106781187,1.570092458684E-16,0.707106781187)
  );
#1023 = ORIENTED_EDGE('',*,*,#1024,.F.);
#1024 = EDGE_CURVE('',#126,#1017,#1025,.T.);
#1025 = LINE('',#1026,#1027);
#1026 = CARTESIAN_POINT('',(108.475,-1.6,-10.));
#1027 = VECTOR('',#1028,1.);
#1028 = DIRECTION('',(2.044604925031E-18,-2.22044604925E-16,1.));
#1029 = PLANE('',#1030);
#1030 = AXIS2_PLACEMENT_3D('',#1031,#1032,#1033);
#1031 = CARTESIAN_POINT('',(118.675,-1.6,-10.));
#1032 = DIRECTION('',(4.440892098501E-16,-1.,-2.22044604925E-16));
#1033 = DIRECTION('',(-1.,-4.440892098501E-16,2.044604925031E-18));
#1034 = ADVANCED_FACE('',(#1035),#1053,.F.);
#1035 = FACE_BOUND('',#1036,.F.);
#1036 = EDGE_LOOP('',(#1037,#1038,#1046,#1052));
#1037 = ORIENTED_EDGE('',*,*,#149,.F.);
#1038 = ORIENTED_EDGE('',*,*,#1039,.T.);
#1039 = EDGE_CURVE('',#142,#1040,#1042,.T.);
#1040 = VERTEX_POINT('',#1041);
#1041 = CARTESIAN_POINT('',(118.675,1.6,-9.88));
#1042 = LINE('',#1043,#1044);
#1043 = CARTESIAN_POINT('',(118.675,1.6,-10.));
#1044 = VECTOR('',#1045,1.);
#1045 = DIRECTION('',(2.044604925031E-18,-2.22044604925E-16,1.));
#1046 = ORIENTED_EDGE('',*,*,#1047,.T.);
#1047 = EDGE_CURVE('',#1040,#993,#1048,.T.);
#1048 = LINE('',#1049,#1050);
#1049 = CARTESIAN_POINT('',(118.675,1.6,-9.88));
#1050 = VECTOR('',#1051,1.);
#1051 = DIRECTION('',(4.440892098501E-16,-1.,-2.22044604925E-16));
#1052 = ORIENTED_EDGE('',*,*,#992,.F.);
#1053 = PLANE('',#1054);
#1054 = AXIS2_PLACEMENT_3D('',#1055,#1056,#1057);
#1055 = CARTESIAN_POINT('',(118.675,1.6,-10.));
#1056 = DIRECTION('',(1.,4.440892098501E-16,-2.044604925031E-18));
#1057 = DIRECTION('',(4.440892098501E-16,-1.,-2.22044604925E-16));
#1058 = ADVANCED_FACE('',(#1059),#1093,.F.);
#1059 = FACE_BOUND('',#1060,.F.);
#1060 = EDGE_LOOP('',(#1061,#1062,#1070,#1078,#1086,#1092));
#1061 = ORIENTED_EDGE('',*,*,#141,.F.);
#1062 = ORIENTED_EDGE('',*,*,#1063,.T.);
#1063 = EDGE_CURVE('',#134,#1064,#1066,.T.);
#1064 = VERTEX_POINT('',#1065);
#1065 = CARTESIAN_POINT('',(108.475,1.6,-9.88));
#1066 = LINE('',#1067,#1068);
#1067 = CARTESIAN_POINT('',(108.475,1.6,-10.));
#1068 = VECTOR('',#1069,1.);
#1069 = DIRECTION('',(2.044604925031E-18,-2.22044604925E-16,1.));
#1070 = ORIENTED_EDGE('',*,*,#1071,.T.);
#1071 = EDGE_CURVE('',#1064,#1072,#1074,.T.);
#1072 = VERTEX_POINT('',#1073);
#1073 = CARTESIAN_POINT('',(110.455,1.6,-7.9));
#1074 = LINE('',#1075,#1076);
#1075 = CARTESIAN_POINT('',(108.94,1.6,-9.415));
#1076 = VECTOR('',#1077,1.);
#1077 = DIRECTION('',(0.707106781187,1.570092458684E-16,0.707106781187)
  );
#1078 = ORIENTED_EDGE('',*,*,#1079,.T.);
#1079 = EDGE_CURVE('',#1072,#1080,#1082,.T.);
#1080 = VERTEX_POINT('',#1081);
#1081 = CARTESIAN_POINT('',(116.695,1.6,-7.9));
#1082 = LINE('',#1083,#1084);
#1083 = CARTESIAN_POINT('',(108.475,1.6,-7.9));
#1084 = VECTOR('',#1085,1.);
#1085 = DIRECTION('',(1.,4.440892098501E-16,-2.22044604925E-16));
#1086 = ORIENTED_EDGE('',*,*,#1087,.F.);
#1087 = EDGE_CURVE('',#1040,#1080,#1088,.T.);
#1088 = LINE('',#1089,#1090);
#1089 = CARTESIAN_POINT('',(115.66,1.6,-6.865));
#1090 = VECTOR('',#1091,1.);
#1091 = DIRECTION('',(-0.707106781187,-4.710277376051E-16,0.707106781187
    ));
#1092 = ORIENTED_EDGE('',*,*,#1039,.F.);
#1093 = PLANE('',#1094);
#1094 = AXIS2_PLACEMENT_3D('',#1095,#1096,#1097);
#1095 = CARTESIAN_POINT('',(108.475,1.6,-10.));
#1096 = DIRECTION('',(-4.440892098501E-16,1.,2.22044604925E-16));
#1097 = DIRECTION('',(1.,4.440892098501E-16,-2.044604925031E-18));
#1098 = ADVANCED_FACE('',(#1099),#1110,.F.);
#1099 = FACE_BOUND('',#1100,.F.);
#1100 = EDGE_LOOP('',(#1101,#1102,#1103,#1109));
#1101 = ORIENTED_EDGE('',*,*,#133,.F.);
#1102 = ORIENTED_EDGE('',*,*,#1024,.T.);
#1103 = ORIENTED_EDGE('',*,*,#1104,.T.);
#1104 = EDGE_CURVE('',#1017,#1064,#1105,.T.);
#1105 = LINE('',#1106,#1107);
#1106 = CARTESIAN_POINT('',(108.475,-1.6,-9.88));
#1107 = VECTOR('',#1108,1.);
#1108 = DIRECTION('',(-4.440892098501E-16,1.,2.22044604925E-16));
#1109 = ORIENTED_EDGE('',*,*,#1063,.F.);
#1110 = PLANE('',#1111);
#1111 = AXIS2_PLACEMENT_3D('',#1112,#1113,#1114);
#1112 = CARTESIAN_POINT('',(108.475,-1.6,-10.));
#1113 = DIRECTION('',(-1.,-4.440892098501E-16,2.044604925031E-18));
#1114 = DIRECTION('',(-4.440892098501E-16,1.,2.22044604925E-16));
#1115 = ADVANCED_FACE('',(#1116),#1157,.F.);
#1116 = FACE_BOUND('',#1117,.F.);
#1117 = EDGE_LOOP('',(#1118,#1119,#1127,#1135,#1143,#1151));
#1118 = ORIENTED_EDGE('',*,*,#157,.F.);
#1119 = ORIENTED_EDGE('',*,*,#1120,.T.);
#1120 = EDGE_CURVE('',#158,#1121,#1123,.T.);
#1121 = VERTEX_POINT('',#1122);
#1122 = CARTESIAN_POINT('',(98.025,-1.6,-9.88));
#1123 = LINE('',#1124,#1125);
#1124 = CARTESIAN_POINT('',(98.025,-1.6,-10.));
#1125 = VECTOR('',#1126,1.);
#1126 = DIRECTION('',(2.044604925031E-18,-2.22044604925E-16,1.));
#1127 = ORIENTED_EDGE('',*,*,#1128,.T.);
#1128 = EDGE_CURVE('',#1121,#1129,#1131,.T.);
#1129 = VERTEX_POINT('',#1130);
#1130 = CARTESIAN_POINT('',(96.045,-1.6,-7.9));
#1131 = LINE('',#1132,#1133);
#1132 = CARTESIAN_POINT('',(97.56,-1.6,-9.415));
#1133 = VECTOR('',#1134,1.);
#1134 = DIRECTION('',(-0.707106781187,-4.710277376051E-16,0.707106781187
    ));
#1135 = ORIENTED_EDGE('',*,*,#1136,.T.);
#1136 = EDGE_CURVE('',#1129,#1137,#1139,.T.);
#1137 = VERTEX_POINT('',#1138);
#1138 = CARTESIAN_POINT('',(89.805,-1.6,-7.9));
#1139 = LINE('',#1140,#1141);
#1140 = CARTESIAN_POINT('',(98.025,-1.6,-7.9));
#1141 = VECTOR('',#1142,1.);
#1142 = DIRECTION('',(-1.,-4.440892098501E-16,2.22044604925E-16));
#1143 = ORIENTED_EDGE('',*,*,#1144,.F.);
#1144 = EDGE_CURVE('',#1145,#1137,#1147,.T.);
#1145 = VERTEX_POINT('',#1146);
#1146 = CARTESIAN_POINT('',(87.825,-1.6,-9.88));
#1147 = LINE('',#1148,#1149);
#1148 = CARTESIAN_POINT('',(90.84,-1.6,-6.865));
#1149 = VECTOR('',#1150,1.);
#1150 = DIRECTION('',(0.707106781187,1.570092458684E-16,0.707106781187)
  );
#1151 = ORIENTED_EDGE('',*,*,#1152,.F.);
#1152 = EDGE_CURVE('',#160,#1145,#1153,.T.);
#1153 = LINE('',#1154,#1155);
#1154 = CARTESIAN_POINT('',(87.825,-1.6,-10.));
#1155 = VECTOR('',#1156,1.);
#1156 = DIRECTION('',(2.044604925031E-18,-2.22044604925E-16,1.));
#1157 = PLANE('',#1158);
#1158 = AXIS2_PLACEMENT_3D('',#1159,#1160,#1161);
#1159 = CARTESIAN_POINT('',(98.025,-1.6,-10.));
#1160 = DIRECTION('',(4.440892098501E-16,-1.,-2.22044604925E-16));
#1161 = DIRECTION('',(-1.,-4.440892098501E-16,2.044604925031E-18));
#1162 = ADVANCED_FACE('',(#1163),#1181,.F.);
#1163 = FACE_BOUND('',#1164,.F.);
#1164 = EDGE_LOOP('',(#1165,#1166,#1174,#1180));
#1165 = ORIENTED_EDGE('',*,*,#183,.F.);
#1166 = ORIENTED_EDGE('',*,*,#1167,.T.);
#1167 = EDGE_CURVE('',#176,#1168,#1170,.T.);
#1168 = VERTEX_POINT('',#1169);
#1169 = CARTESIAN_POINT('',(98.025,1.6,-9.88));
#1170 = LINE('',#1171,#1172);
#1171 = CARTESIAN_POINT('',(98.025,1.6,-10.));
#1172 = VECTOR('',#1173,1.);
#1173 = DIRECTION('',(2.044604925031E-18,-2.22044604925E-16,1.));
#1174 = ORIENTED_EDGE('',*,*,#1175,.T.);
#1175 = EDGE_CURVE('',#1168,#1121,#1176,.T.);
#1176 = LINE('',#1177,#1178);
#1177 = CARTESIAN_POINT('',(98.025,1.6,-9.88));
#1178 = VECTOR('',#1179,1.);
#1179 = DIRECTION('',(4.440892098501E-16,-1.,-2.22044604925E-16));
#1180 = ORIENTED_EDGE('',*,*,#1120,.F.);
#1181 = PLANE('',#1182);
#1182 = AXIS2_PLACEMENT_3D('',#1183,#1184,#1185);
#1183 = CARTESIAN_POINT('',(98.025,1.6,-10.));
#1184 = DIRECTION('',(1.,4.440892098501E-16,-2.044604925031E-18));
#1185 = DIRECTION('',(4.440892098501E-16,-1.,-2.22044604925E-16));
#1186 = ADVANCED_FACE('',(#1187),#1221,.F.);
#1187 = FACE_BOUND('',#1188,.F.);
#1188 = EDGE_LOOP('',(#1189,#1190,#1198,#1206,#1214,#1220));
#1189 = ORIENTED_EDGE('',*,*,#175,.F.);
#1190 = ORIENTED_EDGE('',*,*,#1191,.T.);
#1191 = EDGE_CURVE('',#168,#1192,#1194,.T.);
#1192 = VERTEX_POINT('',#1193);
#1193 = CARTESIAN_POINT('',(87.825,1.6,-9.88));
#1194 = LINE('',#1195,#1196);
#1195 = CARTESIAN_POINT('',(87.825,1.6,-10.));
#1196 = VECTOR('',#1197,1.);
#1197 = DIRECTION('',(2.044604925031E-18,-2.22044604925E-16,1.));
#1198 = ORIENTED_EDGE('',*,*,#1199,.T.);
#1199 = EDGE_CURVE('',#1192,#1200,#1202,.T.);
#1200 = VERTEX_POINT('',#1201);
#1201 = CARTESIAN_POINT('',(89.805,1.6,-7.9));
#1202 = LINE('',#1203,#1204);
#1203 = CARTESIAN_POINT('',(88.29,1.6,-9.415));
#1204 = VECTOR('',#1205,1.);
#1205 = DIRECTION('',(0.707106781187,1.570092458684E-16,0.707106781187)
  );
#1206 = ORIENTED_EDGE('',*,*,#1207,.T.);
#1207 = EDGE_CURVE('',#1200,#1208,#1210,.T.);
#1208 = VERTEX_POINT('',#1209);
#1209 = CARTESIAN_POINT('',(96.045,1.6,-7.9));
#1210 = LINE('',#1211,#1212);
#1211 = CARTESIAN_POINT('',(87.825,1.6,-7.9));
#1212 = VECTOR('',#1213,1.);
#1213 = DIRECTION('',(1.,4.440892098501E-16,-2.22044604925E-16));
#1214 = ORIENTED_EDGE('',*,*,#1215,.F.);
#1215 = EDGE_CURVE('',#1168,#1208,#1216,.T.);
#1216 = LINE('',#1217,#1218);
#1217 = CARTESIAN_POINT('',(95.01,1.6,-6.865));
#1218 = VECTOR('',#1219,1.);
#1219 = DIRECTION('',(-0.707106781187,-4.710277376051E-16,0.707106781187
    ));
#1220 = ORIENTED_EDGE('',*,*,#1167,.F.);
#1221 = PLANE('',#1222);
#1222 = AXIS2_PLACEMENT_3D('',#1223,#1224,#1225);
#1223 = CARTESIAN_POINT('',(87.825,1.6,-10.));
#1224 = DIRECTION('',(-4.440892098501E-16,1.,2.22044604925E-16));
#1225 = DIRECTION('',(1.,4.440892098501E-16,-2.044604925031E-18));
#1226 = ADVANCED_FACE('',(#1227),#1238,.F.);
#1227 = FACE_BOUND('',#1228,.F.);
#1228 = EDGE_LOOP('',(#1229,#1230,#1231,#1237));
#1229 = ORIENTED_EDGE('',*,*,#167,.F.);
#1230 = ORIENTED_EDGE('',*,*,#1152,.T.);
#1231 = ORIENTED_EDGE('',*,*,#1232,.T.);
#1232 = EDGE_CURVE('',#1145,#1192,#1233,.T.);
#1233 = LINE('',#1234,#1235);
#1234 = CARTESIAN_POINT('',(87.825,-1.6,-9.88));
#1235 = VECTOR('',#1236,1.);
#1236 = DIRECTION('',(-4.440892098501E-16,1.,2.22044604925E-16));
#1237 = ORIENTED_EDGE('',*,*,#1191,.F.);
#1238 = PLANE('',#1239);
#1239 = AXIS2_PLACEMENT_3D('',#1240,#1241,#1242);
#1240 = CARTESIAN_POINT('',(87.825,-1.6,-10.));
#1241 = DIRECTION('',(-1.,-4.440892098501E-16,2.044604925031E-18));
#1242 = DIRECTION('',(-4.440892098501E-16,1.,2.22044604925E-16));
#1243 = ADVANCED_FACE('',(#1244),#1285,.F.);
#1244 = FACE_BOUND('',#1245,.F.);
#1245 = EDGE_LOOP('',(#1246,#1247,#1255,#1263,#1271,#1279));
#1246 = ORIENTED_EDGE('',*,*,#191,.F.);
#1247 = ORIENTED_EDGE('',*,*,#1248,.T.);
#1248 = EDGE_CURVE('',#192,#1249,#1251,.T.);
#1249 = VERTEX_POINT('',#1250);
#1250 = CARTESIAN_POINT('',(56.725,-1.6,-9.88));
#1251 = LINE('',#1252,#1253);
#1252 = CARTESIAN_POINT('',(56.725,-1.6,-10.));
#1253 = VECTOR('',#1254,1.);
#1254 = DIRECTION('',(2.044604925031E-18,-2.22044604925E-16,1.));
#1255 = ORIENTED_EDGE('',*,*,#1256,.T.);
#1256 = EDGE_CURVE('',#1249,#1257,#1259,.T.);
#1257 = VERTEX_POINT('',#1258);
#1258 = CARTESIAN_POINT('',(54.745,-1.6,-7.9));
#1259 = LINE('',#1260,#1261);
#1260 = CARTESIAN_POINT('',(56.26,-1.6,-9.415));
#1261 = VECTOR('',#1262,1.);
#1262 = DIRECTION('',(-0.707106781187,-4.710277376051E-16,0.707106781187
    ));
#1263 = ORIENTED_EDGE('',*,*,#1264,.T.);
#1264 = EDGE_CURVE('',#1257,#1265,#1267,.T.);
#1265 = VERTEX_POINT('',#1266);
#1266 = CARTESIAN_POINT('',(48.505,-1.6,-7.9));
#1267 = LINE('',#1268,#1269);
#1268 = CARTESIAN_POINT('',(56.725,-1.6,-7.9));
#1269 = VECTOR('',#1270,1.);
#1270 = DIRECTION('',(-1.,-4.440892098501E-16,2.22044604925E-16));
#1271 = ORIENTED_EDGE('',*,*,#1272,.F.);
#1272 = EDGE_CURVE('',#1273,#1265,#1275,.T.);
#1273 = VERTEX_POINT('',#1274);
#1274 = CARTESIAN_POINT('',(46.525,-1.6,-9.88));
#1275 = LINE('',#1276,#1277);
#1276 = CARTESIAN_POINT('',(49.54,-1.6,-6.865));
#1277 = VECTOR('',#1278,1.);
#1278 = DIRECTION('',(0.707106781187,1.570092458684E-16,0.707106781187)
  );
#1279 = ORIENTED_EDGE('',*,*,#1280,.F.);
#1280 = EDGE_CURVE('',#194,#1273,#1281,.T.);
#1281 = LINE('',#1282,#1283);
#1282 = CARTESIAN_POINT('',(46.525,-1.6,-10.));
#1283 = VECTOR('',#1284,1.);
#1284 = DIRECTION('',(2.044604925031E-18,-2.22044604925E-16,1.));
#1285 = PLANE('',#1286);
#1286 = AXIS2_PLACEMENT_3D('',#1287,#1288,#1289);
#1287 = CARTESIAN_POINT('',(56.725,-1.6,-10.));
#1288 = DIRECTION('',(4.440892098501E-16,-1.,-2.22044604925E-16));
#1289 = DIRECTION('',(-1.,-4.440892098501E-16,2.044604925031E-18));
#1290 = ADVANCED_FACE('',(#1291),#1309,.F.);
#1291 = FACE_BOUND('',#1292,.F.);
#1292 = EDGE_LOOP('',(#1293,#1294,#1302,#1308));
#1293 = ORIENTED_EDGE('',*,*,#217,.F.);
#1294 = ORIENTED_EDGE('',*,*,#1295,.T.);
#1295 = EDGE_CURVE('',#210,#1296,#1298,.T.);
#1296 = VERTEX_POINT('',#1297);
#1297 = CARTESIAN_POINT('',(56.725,1.6,-9.88));
#1298 = LINE('',#1299,#1300);
#1299 = CARTESIAN_POINT('',(56.725,1.6,-10.));
#1300 = VECTOR('',#1301,1.);
#1301 = DIRECTION('',(2.044604925031E-18,-2.22044604925E-16,1.));
#1302 = ORIENTED_EDGE('',*,*,#1303,.T.);
#1303 = EDGE_CURVE('',#1296,#1249,#1304,.T.);
#1304 = LINE('',#1305,#1306);
#1305 = CARTESIAN_POINT('',(56.725,1.6,-9.88));
#1306 = VECTOR('',#1307,1.);
#1307 = DIRECTION('',(4.440892098501E-16,-1.,-2.22044604925E-16));
#1308 = ORIENTED_EDGE('',*,*,#1248,.F.);
#1309 = PLANE('',#1310);
#1310 = AXIS2_PLACEMENT_3D('',#1311,#1312,#1313);
#1311 = CARTESIAN_POINT('',(56.725,1.6,-10.));
#1312 = DIRECTION('',(1.,4.440892098501E-16,-2.044604925031E-18));
#1313 = DIRECTION('',(4.440892098501E-16,-1.,-2.22044604925E-16));
#1314 = ADVANCED_FACE('',(#1315),#1349,.F.);
#1315 = FACE_BOUND('',#1316,.F.);
#1316 = EDGE_LOOP('',(#1317,#1318,#1326,#1334,#1342,#1348));
#1317 = ORIENTED_EDGE('',*,*,#209,.F.);
#1318 = ORIENTED_EDGE('',*,*,#1319,.T.);
#1319 = EDGE_CURVE('',#202,#1320,#1322,.T.);
#1320 = VERTEX_POINT('',#1321);
#1321 = CARTESIAN_POINT('',(46.525,1.6,-9.88));
#1322 = LINE('',#1323,#1324);
#1323 = CARTESIAN_POINT('',(46.525,1.6,-10.));
#1324 = VECTOR('',#1325,1.);
#1325 = DIRECTION('',(2.044604925031E-18,-2.22044604925E-16,1.));
#1326 = ORIENTED_EDGE('',*,*,#1327,.T.);
#1327 = EDGE_CURVE('',#1320,#1328,#1330,.T.);
#1328 = VERTEX_POINT('',#1329);
#1329 = CARTESIAN_POINT('',(48.505,1.6,-7.9));
#1330 = LINE('',#1331,#1332);
#1331 = CARTESIAN_POINT('',(46.99,1.6,-9.415));
#1332 = VECTOR('',#1333,1.);
#1333 = DIRECTION('',(0.707106781187,1.570092458684E-16,0.707106781187)
  );
#1334 = ORIENTED_EDGE('',*,*,#1335,.T.);
#1335 = EDGE_CURVE('',#1328,#1336,#1338,.T.);
#1336 = VERTEX_POINT('',#1337);
#1337 = CARTESIAN_POINT('',(54.745,1.6,-7.9));
#1338 = LINE('',#1339,#1340);
#1339 = CARTESIAN_POINT('',(46.525,1.6,-7.9));
#1340 = VECTOR('',#1341,1.);
#1341 = DIRECTION('',(1.,4.440892098501E-16,-2.22044604925E-16));
#1342 = ORIENTED_EDGE('',*,*,#1343,.F.);
#1343 = EDGE_CURVE('',#1296,#1336,#1344,.T.);
#1344 = LINE('',#1345,#1346);
#1345 = CARTESIAN_POINT('',(53.71,1.6,-6.865));
#1346 = VECTOR('',#1347,1.);
#1347 = DIRECTION('',(-0.707106781187,-4.710277376051E-16,0.707106781187
    ));
#1348 = ORIENTED_EDGE('',*,*,#1295,.F.);
#1349 = PLANE('',#1350);
#1350 = AXIS2_PLACEMENT_3D('',#1351,#1352,#1353);
#1351 = CARTESIAN_POINT('',(46.525,1.6,-10.));
#1352 = DIRECTION('',(-4.440892098501E-16,1.,2.22044604925E-16));
#1353 = DIRECTION('',(1.,4.440892098501E-16,-2.044604925031E-18));
#1354 = ADVANCED_FACE('',(#1355),#1366,.F.);
#1355 = FACE_BOUND('',#1356,.F.);
#1356 = EDGE_LOOP('',(#1357,#1358,#1359,#1365));
#1357 = ORIENTED_EDGE('',*,*,#201,.F.);
#1358 = ORIENTED_EDGE('',*,*,#1280,.T.);
#1359 = ORIENTED_EDGE('',*,*,#1360,.T.);
#1360 = EDGE_CURVE('',#1273,#1320,#1361,.T.);
#1361 = LINE('',#1362,#1363);
#1362 = CARTESIAN_POINT('',(46.525,-1.6,-9.88));
#1363 = VECTOR('',#1364,1.);
#1364 = DIRECTION('',(-4.440892098501E-16,1.,2.22044604925E-16));
#1365 = ORIENTED_EDGE('',*,*,#1319,.F.);
#1366 = PLANE('',#1367);
#1367 = AXIS2_PLACEMENT_3D('',#1368,#1369,#1370);
#1368 = CARTESIAN_POINT('',(46.525,-1.6,-10.));
#1369 = DIRECTION('',(-1.,-4.440892098501E-16,2.044604925031E-18));
#1370 = DIRECTION('',(-4.440892098501E-16,1.,2.22044604925E-16));
#1371 = ADVANCED_FACE('',(#1372),#1413,.F.);
#1372 = FACE_BOUND('',#1373,.F.);
#1373 = EDGE_LOOP('',(#1374,#1375,#1383,#1391,#1399,#1407));
#1374 = ORIENTED_EDGE('',*,*,#225,.F.);
#1375 = ORIENTED_EDGE('',*,*,#1376,.T.);
#1376 = EDGE_CURVE('',#226,#1377,#1379,.T.);
#1377 = VERTEX_POINT('',#1378);
#1378 = CARTESIAN_POINT('',(36.075,-1.6,-9.88));
#1379 = LINE('',#1380,#1381);
#1380 = CARTESIAN_POINT('',(36.075,-1.6,-10.));
#1381 = VECTOR('',#1382,1.);
#1382 = DIRECTION('',(2.044604925031E-18,-2.22044604925E-16,1.));
#1383 = ORIENTED_EDGE('',*,*,#1384,.T.);
#1384 = EDGE_CURVE('',#1377,#1385,#1387,.T.);
#1385 = VERTEX_POINT('',#1386);
#1386 = CARTESIAN_POINT('',(34.095,-1.6,-7.9));
#1387 = LINE('',#1388,#1389);
#1388 = CARTESIAN_POINT('',(35.61,-1.6,-9.415));
#1389 = VECTOR('',#1390,1.);
#1390 = DIRECTION('',(-0.707106781187,-4.710277376051E-16,0.707106781187
    ));
#1391 = ORIENTED_EDGE('',*,*,#1392,.T.);
#1392 = EDGE_CURVE('',#1385,#1393,#1395,.T.);
#1393 = VERTEX_POINT('',#1394);
#1394 = CARTESIAN_POINT('',(27.855,-1.6,-7.9));
#1395 = LINE('',#1396,#1397);
#1396 = CARTESIAN_POINT('',(36.075,-1.6,-7.9));
#1397 = VECTOR('',#1398,1.);
#1398 = DIRECTION('',(-1.,-4.440892098501E-16,2.22044604925E-16));
#1399 = ORIENTED_EDGE('',*,*,#1400,.F.);
#1400 = EDGE_CURVE('',#1401,#1393,#1403,.T.);
#1401 = VERTEX_POINT('',#1402);
#1402 = CARTESIAN_POINT('',(25.875,-1.6,-9.88));
#1403 = LINE('',#1404,#1405);
#1404 = CARTESIAN_POINT('',(28.89,-1.6,-6.865));
#1405 = VECTOR('',#1406,1.);
#1406 = DIRECTION('',(0.707106781187,1.570092458684E-16,0.707106781187)
  );
#1407 = ORIENTED_EDGE('',*,*,#1408,.F.);
#1408 = EDGE_CURVE('',#228,#1401,#1409,.T.);
#1409 = LINE('',#1410,#1411);
#1410 = CARTESIAN_POINT('',(25.875,-1.6,-10.));
#1411 = VECTOR('',#1412,1.);
#1412 = DIRECTION('',(2.044604925031E-18,-2.22044604925E-16,1.));
#1413 = PLANE('',#1414);
#1414 = AXIS2_PLACEMENT_3D('',#1415,#1416,#1417);
#1415 = CARTESIAN_POINT('',(36.075,-1.6,-10.));
#1416 = DIRECTION('',(4.440892098501E-16,-1.,-2.22044604925E-16));
#1417 = DIRECTION('',(-1.,-4.440892098501E-16,2.044604925031E-18));
#1418 = ADVANCED_FACE('',(#1419),#1437,.F.);
#1419 = FACE_BOUND('',#1420,.F.);
#1420 = EDGE_LOOP('',(#1421,#1422,#1430,#1436));
#1421 = ORIENTED_EDGE('',*,*,#251,.F.);
#1422 = ORIENTED_EDGE('',*,*,#1423,.T.);
#1423 = EDGE_CURVE('',#244,#1424,#1426,.T.);
#1424 = VERTEX_POINT('',#1425);
#1425 = CARTESIAN_POINT('',(36.075,1.6,-9.88));
#1426 = LINE('',#1427,#1428);
#1427 = CARTESIAN_POINT('',(36.075,1.6,-10.));
#1428 = VECTOR('',#1429,1.);
#1429 = DIRECTION('',(2.044604925031E-18,-2.22044604925E-16,1.));
#1430 = ORIENTED_EDGE('',*,*,#1431,.T.);
#1431 = EDGE_CURVE('',#1424,#1377,#1432,.T.);
#1432 = LINE('',#1433,#1434);
#1433 = CARTESIAN_POINT('',(36.075,1.6,-9.88));
#1434 = VECTOR('',#1435,1.);
#1435 = DIRECTION('',(4.440892098501E-16,-1.,-2.22044604925E-16));
#1436 = ORIENTED_EDGE('',*,*,#1376,.F.);
#1437 = PLANE('',#1438);
#1438 = AXIS2_PLACEMENT_3D('',#1439,#1440,#1441);
#1439 = CARTESIAN_POINT('',(36.075,1.6,-10.));
#1440 = DIRECTION('',(1.,4.440892098501E-16,-2.044604925031E-18));
#1441 = DIRECTION('',(4.440892098501E-16,-1.,-2.22044604925E-16));
#1442 = ADVANCED_FACE('',(#1443),#1477,.F.);
#1443 = FACE_BOUND('',#1444,.F.);
#1444 = EDGE_LOOP('',(#1445,#1446,#1454,#1462,#1470,#1476));
#1445 = ORIENTED_EDGE('',*,*,#243,.F.);
#1446 = ORIENTED_EDGE('',*,*,#1447,.T.);
#1447 = EDGE_CURVE('',#236,#1448,#1450,.T.);
#1448 = VERTEX_POINT('',#1449);
#1449 = CARTESIAN_POINT('',(25.875,1.6,-9.88));
#1450 = LINE('',#1451,#1452);
#1451 = CARTESIAN_POINT('',(25.875,1.6,-10.));
#1452 = VECTOR('',#1453,1.);
#1453 = DIRECTION('',(2.044604925031E-18,-2.22044604925E-16,1.));
#1454 = ORIENTED_EDGE('',*,*,#1455,.T.);
#1455 = EDGE_CURVE('',#1448,#1456,#1458,.T.);
#1456 = VERTEX_POINT('',#1457);
#1457 = CARTESIAN_POINT('',(27.855,1.6,-7.9));
#1458 = LINE('',#1459,#1460);
#1459 = CARTESIAN_POINT('',(26.34,1.6,-9.415));
#1460 = VECTOR('',#1461,1.);
#1461 = DIRECTION('',(0.707106781187,1.570092458684E-16,0.707106781187)
  );
#1462 = ORIENTED_EDGE('',*,*,#1463,.T.);
#1463 = EDGE_CURVE('',#1456,#1464,#1466,.T.);
#1464 = VERTEX_POINT('',#1465);
#1465 = CARTESIAN_POINT('',(34.095,1.6,-7.9));
#1466 = LINE('',#1467,#1468);
#1467 = CARTESIAN_POINT('',(25.875,1.6,-7.9));
#1468 = VECTOR('',#1469,1.);
#1469 = DIRECTION('',(1.,4.440892098501E-16,-2.22044604925E-16));
#1470 = ORIENTED_EDGE('',*,*,#1471,.F.);
#1471 = EDGE_CURVE('',#1424,#1464,#1472,.T.);
#1472 = LINE('',#1473,#1474);
#1473 = CARTESIAN_POINT('',(33.06,1.6,-6.865));
#1474 = VECTOR('',#1475,1.);
#1475 = DIRECTION('',(-0.707106781187,-4.710277376051E-16,0.707106781187
    ));
#1476 = ORIENTED_EDGE('',*,*,#1423,.F.);
#1477 = PLANE('',#1478);
#1478 = AXIS2_PLACEMENT_3D('',#1479,#1480,#1481);
#1479 = CARTESIAN_POINT('',(25.875,1.6,-10.));
#1480 = DIRECTION('',(-4.440892098501E-16,1.,2.22044604925E-16));
#1481 = DIRECTION('',(1.,4.440892098501E-16,-2.044604925031E-18));
#1482 = ADVANCED_FACE('',(#1483),#1494,.F.);
#1483 = FACE_BOUND('',#1484,.F.);
#1484 = EDGE_LOOP('',(#1485,#1486,#1487,#1493));
#1485 = ORIENTED_EDGE('',*,*,#235,.F.);
#1486 = ORIENTED_EDGE('',*,*,#1408,.T.);
#1487 = ORIENTED_EDGE('',*,*,#1488,.T.);
#1488 = EDGE_CURVE('',#1401,#1448,#1489,.T.);
#1489 = LINE('',#1490,#1491);
#1490 = CARTESIAN_POINT('',(25.875,-1.6,-9.88));
#1491 = VECTOR('',#1492,1.);
#1492 = DIRECTION('',(-4.440892098501E-16,1.,2.22044604925E-16));
#1493 = ORIENTED_EDGE('',*,*,#1447,.F.);
#1494 = PLANE('',#1495);
#1495 = AXIS2_PLACEMENT_3D('',#1496,#1497,#1498);
#1496 = CARTESIAN_POINT('',(25.875,-1.6,-10.));
#1497 = DIRECTION('',(-1.,-4.440892098501E-16,2.044604925031E-18));
#1498 = DIRECTION('',(-4.440892098501E-16,1.,2.22044604925E-16));
#1499 = ADVANCED_FACE('',(#1500),#1541,.F.);
#1500 = FACE_BOUND('',#1501,.F.);
#1501 = EDGE_LOOP('',(#1502,#1510,#1518,#1526,#1534,#1540));
#1502 = ORIENTED_EDGE('',*,*,#1503,.T.);
#1503 = EDGE_CURVE('',#260,#1504,#1506,.T.);
#1504 = VERTEX_POINT('',#1505);
#1505 = CARTESIAN_POINT('',(15.425,-1.6,-9.88));
#1506 = LINE('',#1507,#1508);
#1507 = CARTESIAN_POINT('',(15.425,-1.6,-10.));
#1508 = VECTOR('',#1509,1.);
#1509 = DIRECTION('',(2.044604925031E-18,-2.22044604925E-16,1.));
#1510 = ORIENTED_EDGE('',*,*,#1511,.T.);
#1511 = EDGE_CURVE('',#1504,#1512,#1514,.T.);
#1512 = VERTEX_POINT('',#1513);
#1513 = CARTESIAN_POINT('',(13.445,-1.6,-7.9));
#1514 = LINE('',#1515,#1516);
#1515 = CARTESIAN_POINT('',(14.96,-1.6,-9.415));
#1516 = VECTOR('',#1517,1.);
#1517 = DIRECTION('',(-0.707106781187,-4.710277376051E-16,0.707106781187
    ));
#1518 = ORIENTED_EDGE('',*,*,#1519,.T.);
#1519 = EDGE_CURVE('',#1512,#1520,#1522,.T.);
#1520 = VERTEX_POINT('',#1521);
#1521 = CARTESIAN_POINT('',(7.205,-1.6,-7.9));
#1522 = LINE('',#1523,#1524);
#1523 = CARTESIAN_POINT('',(15.425,-1.6,-7.9));
#1524 = VECTOR('',#1525,1.);
#1525 = DIRECTION('',(-1.,-4.440892098501E-16,2.22044604925E-16));
#1526 = ORIENTED_EDGE('',*,*,#1527,.F.);
#1527 = EDGE_CURVE('',#1528,#1520,#1530,.T.);
#1528 = VERTEX_POINT('',#1529);
#1529 = CARTESIAN_POINT('',(5.225,-1.6,-9.88));
#1530 = LINE('',#1531,#1532);
#1531 = CARTESIAN_POINT('',(8.24,-1.6,-6.865));
#1532 = VECTOR('',#1533,1.);
#1533 = DIRECTION('',(0.707106781187,1.570092458684E-16,0.707106781187)
  );
#1534 = ORIENTED_EDGE('',*,*,#1535,.F.);
#1535 = EDGE_CURVE('',#262,#1528,#1536,.T.);
#1536 = LINE('',#1537,#1538);
#1537 = CARTESIAN_POINT('',(5.225,-1.6,-10.));
#1538 = VECTOR('',#1539,1.);
#1539 = DIRECTION('',(2.044604925031E-18,-2.22044604925E-16,1.));
#1540 = ORIENTED_EDGE('',*,*,#259,.F.);
#1541 = PLANE('',#1542);
#1542 = AXIS2_PLACEMENT_3D('',#1543,#1544,#1545);
#1543 = CARTESIAN_POINT('',(15.425,-1.6,-10.));
#1544 = DIRECTION('',(4.440892098501E-16,-1.,-2.22044604925E-16));
#1545 = DIRECTION('',(-1.,-4.440892098501E-16,2.044604925031E-18));
#1546 = ADVANCED_FACE('',(#1547),#1565,.F.);
#1547 = FACE_BOUND('',#1548,.F.);
#1548 = EDGE_LOOP('',(#1549,#1557,#1563,#1564));
#1549 = ORIENTED_EDGE('',*,*,#1550,.T.);
#1550 = EDGE_CURVE('',#278,#1551,#1553,.T.);
#1551 = VERTEX_POINT('',#1552);
#1552 = CARTESIAN_POINT('',(15.425,1.6,-9.88));
#1553 = LINE('',#1554,#1555);
#1554 = CARTESIAN_POINT('',(15.425,1.6,-10.));
#1555 = VECTOR('',#1556,1.);
#1556 = DIRECTION('',(2.044604925031E-18,-2.22044604925E-16,1.));
#1557 = ORIENTED_EDGE('',*,*,#1558,.T.);
#1558 = EDGE_CURVE('',#1551,#1504,#1559,.T.);
#1559 = LINE('',#1560,#1561);
#1560 = CARTESIAN_POINT('',(15.425,1.6,-9.88));
#1561 = VECTOR('',#1562,1.);
#1562 = DIRECTION('',(4.440892098501E-16,-1.,-2.22044604925E-16));
#1563 = ORIENTED_EDGE('',*,*,#1503,.F.);
#1564 = ORIENTED_EDGE('',*,*,#285,.F.);
#1565 = PLANE('',#1566);
#1566 = AXIS2_PLACEMENT_3D('',#1567,#1568,#1569);
#1567 = CARTESIAN_POINT('',(15.425,1.6,-10.));
#1568 = DIRECTION('',(1.,4.440892098501E-16,-2.044604925031E-18));
#1569 = DIRECTION('',(4.440892098501E-16,-1.,-2.22044604925E-16));
#1570 = ADVANCED_FACE('',(#1571),#1589,.F.);
#1571 = FACE_BOUND('',#1572,.F.);
#1572 = EDGE_LOOP('',(#1573,#1574,#1582,#1588));
#1573 = ORIENTED_EDGE('',*,*,#1535,.T.);
#1574 = ORIENTED_EDGE('',*,*,#1575,.T.);
#1575 = EDGE_CURVE('',#1528,#1576,#1578,.T.);
#1576 = VERTEX_POINT('',#1577);
#1577 = CARTESIAN_POINT('',(5.225,1.6,-9.88));
#1578 = LINE('',#1579,#1580);
#1579 = CARTESIAN_POINT('',(5.225,-1.6,-9.88));
#1580 = VECTOR('',#1581,1.);
#1581 = DIRECTION('',(-4.440892098501E-16,1.,2.22044604925E-16));
#1582 = ORIENTED_EDGE('',*,*,#1583,.F.);
#1583 = EDGE_CURVE('',#270,#1576,#1584,.T.);
#1584 = LINE('',#1585,#1586);
#1585 = CARTESIAN_POINT('',(5.225,1.6,-10.));
#1586 = VECTOR('',#1587,1.);
#1587 = DIRECTION('',(2.044604925031E-18,-2.22044604925E-16,1.));
#1588 = ORIENTED_EDGE('',*,*,#269,.F.);
#1589 = PLANE('',#1590);
#1590 = AXIS2_PLACEMENT_3D('',#1591,#1592,#1593);
#1591 = CARTESIAN_POINT('',(5.225,-1.6,-10.));
#1592 = DIRECTION('',(-1.,-4.440892098501E-16,2.044604925031E-18));
#1593 = DIRECTION('',(-4.440892098501E-16,1.,2.22044604925E-16));
#1594 = ADVANCED_FACE('',(#1595),#1622,.F.);
#1595 = FACE_BOUND('',#1596,.F.);
#1596 = EDGE_LOOP('',(#1597,#1598,#1606,#1614,#1620,#1621));
#1597 = ORIENTED_EDGE('',*,*,#1583,.T.);
#1598 = ORIENTED_EDGE('',*,*,#1599,.T.);
#1599 = EDGE_CURVE('',#1576,#1600,#1602,.T.);
#1600 = VERTEX_POINT('',#1601);
#1601 = CARTESIAN_POINT('',(7.205,1.6,-7.9));
#1602 = LINE('',#1603,#1604);
#1603 = CARTESIAN_POINT('',(5.69,1.6,-9.415));
#1604 = VECTOR('',#1605,1.);
#1605 = DIRECTION('',(0.707106781187,1.570092458684E-16,0.707106781187)
  );
#1606 = ORIENTED_EDGE('',*,*,#1607,.T.);
#1607 = EDGE_CURVE('',#1600,#1608,#1610,.T.);
#1608 = VERTEX_POINT('',#1609);
#1609 = CARTESIAN_POINT('',(13.445,1.6,-7.9));
#1610 = LINE('',#1611,#1612);
#1611 = CARTESIAN_POINT('',(5.225,1.6,-7.9));
#1612 = VECTOR('',#1613,1.);
#1613 = DIRECTION('',(1.,4.440892098501E-16,-2.22044604925E-16));
#1614 = ORIENTED_EDGE('',*,*,#1615,.F.);
#1615 = EDGE_CURVE('',#1551,#1608,#1616,.T.);
#1616 = LINE('',#1617,#1618);
#1617 = CARTESIAN_POINT('',(12.41,1.6,-6.865));
#1618 = VECTOR('',#1619,1.);
#1619 = DIRECTION('',(-0.707106781187,-4.710277376051E-16,0.707106781187
    ));
#1620 = ORIENTED_EDGE('',*,*,#1550,.F.);
#1621 = ORIENTED_EDGE('',*,*,#277,.F.);
#1622 = PLANE('',#1623);
#1623 = AXIS2_PLACEMENT_3D('',#1624,#1625,#1626);
#1624 = CARTESIAN_POINT('',(5.225,1.6,-10.));
#1625 = DIRECTION('',(-4.440892098501E-16,1.,2.22044604925E-16));
#1626 = DIRECTION('',(1.,4.440892098501E-16,-2.044604925031E-18));
#1627 = ADVANCED_FACE('',(#1628),#1669,.F.);
#1628 = FACE_BOUND('',#1629,.F.);
#1629 = EDGE_LOOP('',(#1630,#1631,#1639,#1647,#1655,#1663));
#1630 = ORIENTED_EDGE('',*,*,#293,.F.);
#1631 = ORIENTED_EDGE('',*,*,#1632,.T.);
#1632 = EDGE_CURVE('',#294,#1633,#1635,.T.);
#1633 = VERTEX_POINT('',#1634);
#1634 = CARTESIAN_POINT('',(77.375,-1.6,-9.88));
#1635 = LINE('',#1636,#1637);
#1636 = CARTESIAN_POINT('',(77.375,-1.6,-10.));
#1637 = VECTOR('',#1638,1.);
#1638 = DIRECTION('',(2.044604925031E-18,-2.22044604925E-16,1.));
#1639 = ORIENTED_EDGE('',*,*,#1640,.T.);
#1640 = EDGE_CURVE('',#1633,#1641,#1643,.T.);
#1641 = VERTEX_POINT('',#1642);
#1642 = CARTESIAN_POINT('',(75.395,-1.6,-7.9));
#1643 = LINE('',#1644,#1645);
#1644 = CARTESIAN_POINT('',(76.91,-1.6,-9.415));
#1645 = VECTOR('',#1646,1.);
#1646 = DIRECTION('',(-0.707106781187,-4.710277376051E-16,0.707106781187
    ));
#1647 = ORIENTED_EDGE('',*,*,#1648,.T.);
#1648 = EDGE_CURVE('',#1641,#1649,#1651,.T.);
#1649 = VERTEX_POINT('',#1650);
#1650 = CARTESIAN_POINT('',(69.155,-1.6,-7.9));
#1651 = LINE('',#1652,#1653);
#1652 = CARTESIAN_POINT('',(77.375,-1.6,-7.9));
#1653 = VECTOR('',#1654,1.);
#1654 = DIRECTION('',(-1.,-4.440892098501E-16,2.22044604925E-16));
#1655 = ORIENTED_EDGE('',*,*,#1656,.F.);
#1656 = EDGE_CURVE('',#1657,#1649,#1659,.T.);
#1657 = VERTEX_POINT('',#1658);
#1658 = CARTESIAN_POINT('',(67.175,-1.6,-9.88));
#1659 = LINE('',#1660,#1661);
#1660 = CARTESIAN_POINT('',(70.19,-1.6,-6.865));
#1661 = VECTOR('',#1662,1.);
#1662 = DIRECTION('',(0.707106781187,1.570092458684E-16,0.707106781187)
  );
#1663 = ORIENTED_EDGE('',*,*,#1664,.F.);
#1664 = EDGE_CURVE('',#296,#1657,#1665,.T.);
#1665 = LINE('',#1666,#1667);
#1666 = CARTESIAN_POINT('',(67.175,-1.6,-10.));
#1667 = VECTOR('',#1668,1.);
#1668 = DIRECTION('',(2.044604925031E-18,-2.22044604925E-16,1.));
#1669 = PLANE('',#1670);
#1670 = AXIS2_PLACEMENT_3D('',#1671,#1672,#1673);
#1671 = CARTESIAN_POINT('',(77.375,-1.6,-10.));
#1672 = DIRECTION('',(4.440892098501E-16,-1.,-2.22044604925E-16));
#1673 = DIRECTION('',(-1.,-4.440892098501E-16,2.044604925031E-18));
#1674 = ADVANCED_FACE('',(#1675),#1693,.F.);
#1675 = FACE_BOUND('',#1676,.F.);
#1676 = EDGE_LOOP('',(#1677,#1678,#1686,#1692));
#1677 = ORIENTED_EDGE('',*,*,#319,.F.);
#1678 = ORIENTED_EDGE('',*,*,#1679,.T.);
#1679 = EDGE_CURVE('',#312,#1680,#1682,.T.);
#1680 = VERTEX_POINT('',#1681);
#1681 = CARTESIAN_POINT('',(77.375,1.6,-9.88));
#1682 = LINE('',#1683,#1684);
#1683 = CARTESIAN_POINT('',(77.375,1.6,-10.));
#1684 = VECTOR('',#1685,1.);
#1685 = DIRECTION('',(2.044604925031E-18,-2.22044604925E-16,1.));
#1686 = ORIENTED_EDGE('',*,*,#1687,.T.);
#1687 = EDGE_CURVE('',#1680,#1633,#1688,.T.);
#1688 = LINE('',#1689,#1690);
#1689 = CARTESIAN_POINT('',(77.375,1.6,-9.88));
#1690 = VECTOR('',#1691,1.);
#1691 = DIRECTION('',(4.440892098501E-16,-1.,-2.22044604925E-16));
#1692 = ORIENTED_EDGE('',*,*,#1632,.F.);
#1693 = PLANE('',#1694);
#1694 = AXIS2_PLACEMENT_3D('',#1695,#1696,#1697);
#1695 = CARTESIAN_POINT('',(77.375,1.6,-10.));
#1696 = DIRECTION('',(1.,4.440892098501E-16,-2.044604925031E-18));
#1697 = DIRECTION('',(4.440892098501E-16,-1.,-2.22044604925E-16));
#1698 = ADVANCED_FACE('',(#1699),#1733,.F.);
#1699 = FACE_BOUND('',#1700,.F.);
#1700 = EDGE_LOOP('',(#1701,#1702,#1710,#1718,#1726,#1732));
#1701 = ORIENTED_EDGE('',*,*,#311,.F.);
#1702 = ORIENTED_EDGE('',*,*,#1703,.T.);
#1703 = EDGE_CURVE('',#304,#1704,#1706,.T.);
#1704 = VERTEX_POINT('',#1705);
#1705 = CARTESIAN_POINT('',(67.175,1.6,-9.88));
#1706 = LINE('',#1707,#1708);
#1707 = CARTESIAN_POINT('',(67.175,1.6,-10.));
#1708 = VECTOR('',#1709,1.);
#1709 = DIRECTION('',(2.044604925031E-18,-2.22044604925E-16,1.));
#1710 = ORIENTED_EDGE('',*,*,#1711,.T.);
#1711 = EDGE_CURVE('',#1704,#1712,#1714,.T.);
#1712 = VERTEX_POINT('',#1713);
#1713 = CARTESIAN_POINT('',(69.155,1.6,-7.9));
#1714 = LINE('',#1715,#1716);
#1715 = CARTESIAN_POINT('',(67.64,1.6,-9.415));
#1716 = VECTOR('',#1717,1.);
#1717 = DIRECTION('',(0.707106781187,1.570092458684E-16,0.707106781187)
  );
#1718 = ORIENTED_EDGE('',*,*,#1719,.T.);
#1719 = EDGE_CURVE('',#1712,#1720,#1722,.T.);
#1720 = VERTEX_POINT('',#1721);
#1721 = CARTESIAN_POINT('',(75.395,1.6,-7.9));
#1722 = LINE('',#1723,#1724);
#1723 = CARTESIAN_POINT('',(67.175,1.6,-7.9));
#1724 = VECTOR('',#1725,1.);
#1725 = DIRECTION('',(1.,4.440892098501E-16,-2.22044604925E-16));
#1726 = ORIENTED_EDGE('',*,*,#1727,.F.);
#1727 = EDGE_CURVE('',#1680,#1720,#1728,.T.);
#1728 = LINE('',#1729,#1730);
#1729 = CARTESIAN_POINT('',(74.36,1.6,-6.865));
#1730 = VECTOR('',#1731,1.);
#1731 = DIRECTION('',(-0.707106781187,-4.710277376051E-16,0.707106781187
    ));
#1732 = ORIENTED_EDGE('',*,*,#1679,.F.);
#1733 = PLANE('',#1734);
#1734 = AXIS2_PLACEMENT_3D('',#1735,#1736,#1737);
#1735 = CARTESIAN_POINT('',(67.175,1.6,-10.));
#1736 = DIRECTION('',(-4.440892098501E-16,1.,2.22044604925E-16));
#1737 = DIRECTION('',(1.,4.440892098501E-16,-2.044604925031E-18));
#1738 = ADVANCED_FACE('',(#1739),#1750,.F.);
#1739 = FACE_BOUND('',#1740,.F.);
#1740 = EDGE_LOOP('',(#1741,#1742,#1743,#1749));
#1741 = ORIENTED_EDGE('',*,*,#303,.F.);
#1742 = ORIENTED_EDGE('',*,*,#1664,.T.);
#1743 = ORIENTED_EDGE('',*,*,#1744,.T.);
#1744 = EDGE_CURVE('',#1657,#1704,#1745,.T.);
#1745 = LINE('',#1746,#1747);
#1746 = CARTESIAN_POINT('',(67.175,-1.6,-9.88));
#1747 = VECTOR('',#1748,1.);
#1748 = DIRECTION('',(-4.440892098501E-16,1.,2.22044604925E-16));
#1749 = ORIENTED_EDGE('',*,*,#1703,.F.);
#1750 = PLANE('',#1751);
#1751 = AXIS2_PLACEMENT_3D('',#1752,#1753,#1754);
#1752 = CARTESIAN_POINT('',(67.175,-1.6,-10.));
#1753 = DIRECTION('',(-1.,-4.440892098501E-16,2.044604925031E-18));
#1754 = DIRECTION('',(-4.440892098501E-16,1.,2.22044604925E-16));
#1755 = ADVANCED_FACE('',(#1756),#1767,.F.);
#1756 = FACE_BOUND('',#1757,.T.);
#1757 = EDGE_LOOP('',(#1758,#1759,#1760,#1761));
#1758 = ORIENTED_EDGE('',*,*,#760,.F.);
#1759 = ORIENTED_EDGE('',*,*,#848,.T.);
#1760 = ORIENTED_EDGE('',*,*,#815,.T.);
#1761 = ORIENTED_EDGE('',*,*,#1762,.F.);
#1762 = EDGE_CURVE('',#753,#816,#1763,.T.);
#1763 = LINE('',#1764,#1765);
#1764 = CARTESIAN_POINT('',(151.755,-1.6,-7.9));
#1765 = VECTOR('',#1766,1.);
#1766 = DIRECTION('',(-4.440892098501E-16,1.,2.22044604925E-16));
#1767 = PLANE('',#1768);
#1768 = AXIS2_PLACEMENT_3D('',#1769,#1770,#1771);
#1769 = CARTESIAN_POINT('',(150.765,-1.6,-8.89));
#1770 = DIRECTION('',(-0.707106781187,-4.710277376051E-16,0.707106781187
    ));
#1771 = DIRECTION('',(4.440892098501E-16,-1.,-2.22044604925E-16));
#1772 = ADVANCED_FACE('',(#1773),#1784,.F.);
#1773 = FACE_BOUND('',#1774,.F.);
#1774 = EDGE_LOOP('',(#1775,#1776,#1777,#1783));
#1775 = ORIENTED_EDGE('',*,*,#1762,.F.);
#1776 = ORIENTED_EDGE('',*,*,#752,.F.);
#1777 = ORIENTED_EDGE('',*,*,#1778,.F.);
#1778 = EDGE_CURVE('',#824,#745,#1779,.T.);
#1779 = LINE('',#1780,#1781);
#1780 = CARTESIAN_POINT('',(157.995,1.6,-7.9));
#1781 = VECTOR('',#1782,1.);
#1782 = DIRECTION('',(4.440892098501E-16,-1.,-2.22044604925E-16));
#1783 = ORIENTED_EDGE('',*,*,#823,.F.);
#1784 = PLANE('',#1785);
#1785 = AXIS2_PLACEMENT_3D('',#1786,#1787,#1788);
#1786 = CARTESIAN_POINT('',(154.875,8.196157665594E-14,-7.9));
#1787 = DIRECTION('',(2.22044604925E-16,-2.22044604925E-16,1.));
#1788 = DIRECTION('',(1.,4.440892098501E-16,-2.22044604925E-16));
#1789 = ADVANCED_FACE('',(#1790),#1796,.F.);
#1790 = FACE_BOUND('',#1791,.T.);
#1791 = EDGE_LOOP('',(#1792,#1793,#1794,#1795));
#1792 = ORIENTED_EDGE('',*,*,#831,.F.);
#1793 = ORIENTED_EDGE('',*,*,#791,.T.);
#1794 = ORIENTED_EDGE('',*,*,#744,.T.);
#1795 = ORIENTED_EDGE('',*,*,#1778,.F.);
#1796 = PLANE('',#1797);
#1797 = AXIS2_PLACEMENT_3D('',#1798,#1799,#1800);
#1798 = CARTESIAN_POINT('',(158.985,1.6,-8.89));
#1799 = DIRECTION('',(0.707106781187,1.570092458684E-16,0.707106781187)
  );
#1800 = DIRECTION('',(-4.440892098501E-16,1.,2.22044604925E-16));
#1801 = ADVANCED_FACE('',(#1802),#1813,.F.);
#1802 = FACE_BOUND('',#1803,.T.);
#1803 = EDGE_LOOP('',(#1804,#1805,#1806,#1807));
#1804 = ORIENTED_EDGE('',*,*,#888,.F.);
#1805 = ORIENTED_EDGE('',*,*,#976,.T.);
#1806 = ORIENTED_EDGE('',*,*,#943,.T.);
#1807 = ORIENTED_EDGE('',*,*,#1808,.F.);
#1808 = EDGE_CURVE('',#881,#944,#1809,.T.);
#1809 = LINE('',#1810,#1811);
#1810 = CARTESIAN_POINT('',(131.105,-1.6,-7.9));
#1811 = VECTOR('',#1812,1.);
#1812 = DIRECTION('',(-4.440892098501E-16,1.,2.22044604925E-16));
#1813 = PLANE('',#1814);
#1814 = AXIS2_PLACEMENT_3D('',#1815,#1816,#1817);
#1815 = CARTESIAN_POINT('',(130.115,-1.6,-8.89));
#1816 = DIRECTION('',(-0.707106781187,-4.710277376051E-16,0.707106781187
    ));
#1817 = DIRECTION('',(4.440892098501E-16,-1.,-2.22044604925E-16));
#1818 = ADVANCED_FACE('',(#1819),#1830,.F.);
#1819 = FACE_BOUND('',#1820,.F.);
#1820 = EDGE_LOOP('',(#1821,#1822,#1823,#1829));
#1821 = ORIENTED_EDGE('',*,*,#1808,.F.);
#1822 = ORIENTED_EDGE('',*,*,#880,.F.);
#1823 = ORIENTED_EDGE('',*,*,#1824,.F.);
#1824 = EDGE_CURVE('',#952,#873,#1825,.T.);
#1825 = LINE('',#1826,#1827);
#1826 = CARTESIAN_POINT('',(137.345,1.6,-7.9));
#1827 = VECTOR('',#1828,1.);
#1828 = DIRECTION('',(4.440892098501E-16,-1.,-2.22044604925E-16));
#1829 = ORIENTED_EDGE('',*,*,#951,.F.);
#1830 = PLANE('',#1831);
#1831 = AXIS2_PLACEMENT_3D('',#1832,#1833,#1834);
#1832 = CARTESIAN_POINT('',(134.225,7.079113447253E-14,-7.9));
#1833 = DIRECTION('',(2.22044604925E-16,-2.22044604925E-16,1.));
#1834 = DIRECTION('',(1.,4.440892098501E-16,-2.22044604925E-16));
#1835 = ADVANCED_FACE('',(#1836),#1842,.F.);
#1836 = FACE_BOUND('',#1837,.T.);
#1837 = EDGE_LOOP('',(#1838,#1839,#1840,#1841));
#1838 = ORIENTED_EDGE('',*,*,#959,.F.);
#1839 = ORIENTED_EDGE('',*,*,#919,.T.);
#1840 = ORIENTED_EDGE('',*,*,#872,.T.);
#1841 = ORIENTED_EDGE('',*,*,#1824,.F.);
#1842 = PLANE('',#1843);
#1843 = AXIS2_PLACEMENT_3D('',#1844,#1845,#1846);
#1844 = CARTESIAN_POINT('',(138.335,1.6,-8.89));
#1845 = DIRECTION('',(0.707106781187,1.570092458684E-16,0.707106781187)
  );
#1846 = DIRECTION('',(-4.440892098501E-16,1.,2.22044604925E-16));
#1847 = ADVANCED_FACE('',(#1848),#1859,.F.);
#1848 = FACE_BOUND('',#1849,.T.);
#1849 = EDGE_LOOP('',(#1850,#1851,#1852,#1853));
#1850 = ORIENTED_EDGE('',*,*,#1016,.F.);
#1851 = ORIENTED_EDGE('',*,*,#1104,.T.);
#1852 = ORIENTED_EDGE('',*,*,#1071,.T.);
#1853 = ORIENTED_EDGE('',*,*,#1854,.F.);
#1854 = EDGE_CURVE('',#1009,#1072,#1855,.T.);
#1855 = LINE('',#1856,#1857);
#1856 = CARTESIAN_POINT('',(110.455,-1.6,-7.9));
#1857 = VECTOR('',#1858,1.);
#1858 = DIRECTION('',(-4.440892098501E-16,1.,2.22044604925E-16));
#1859 = PLANE('',#1860);
#1860 = AXIS2_PLACEMENT_3D('',#1861,#1862,#1863);
#1861 = CARTESIAN_POINT('',(109.465,-1.6,-8.89));
#1862 = DIRECTION('',(-0.707106781187,-4.710277376051E-16,0.707106781187
    ));
#1863 = DIRECTION('',(4.440892098501E-16,-1.,-2.22044604925E-16));
#1864 = ADVANCED_FACE('',(#1865),#1876,.F.);
#1865 = FACE_BOUND('',#1866,.F.);
#1866 = EDGE_LOOP('',(#1867,#1868,#1869,#1875));
#1867 = ORIENTED_EDGE('',*,*,#1854,.F.);
#1868 = ORIENTED_EDGE('',*,*,#1008,.F.);
#1869 = ORIENTED_EDGE('',*,*,#1870,.F.);
#1870 = EDGE_CURVE('',#1080,#1001,#1871,.T.);
#1871 = LINE('',#1872,#1873);
#1872 = CARTESIAN_POINT('',(116.695,1.6,-7.9));
#1873 = VECTOR('',#1874,1.);
#1874 = DIRECTION('',(4.440892098501E-16,-1.,-2.22044604925E-16));
#1875 = ORIENTED_EDGE('',*,*,#1079,.F.);
#1876 = PLANE('',#1877);
#1877 = AXIS2_PLACEMENT_3D('',#1878,#1879,#1880);
#1878 = CARTESIAN_POINT('',(113.575,5.862069228913E-14,-7.9));
#1879 = DIRECTION('',(2.22044604925E-16,-2.22044604925E-16,1.));
#1880 = DIRECTION('',(1.,4.440892098501E-16,-2.22044604925E-16));
#1881 = ADVANCED_FACE('',(#1882),#1888,.F.);
#1882 = FACE_BOUND('',#1883,.T.);
#1883 = EDGE_LOOP('',(#1884,#1885,#1886,#1887));
#1884 = ORIENTED_EDGE('',*,*,#1087,.F.);
#1885 = ORIENTED_EDGE('',*,*,#1047,.T.);
#1886 = ORIENTED_EDGE('',*,*,#1000,.T.);
#1887 = ORIENTED_EDGE('',*,*,#1870,.F.);
#1888 = PLANE('',#1889);
#1889 = AXIS2_PLACEMENT_3D('',#1890,#1891,#1892);
#1890 = CARTESIAN_POINT('',(117.685,1.6,-8.89));
#1891 = DIRECTION('',(0.707106781187,1.570092458684E-16,0.707106781187)
  );
#1892 = DIRECTION('',(-4.440892098501E-16,1.,2.22044604925E-16));
#1893 = ADVANCED_FACE('',(#1894),#1905,.F.);
#1894 = FACE_BOUND('',#1895,.T.);
#1895 = EDGE_LOOP('',(#1896,#1897,#1898,#1899));
#1896 = ORIENTED_EDGE('',*,*,#1144,.F.);
#1897 = ORIENTED_EDGE('',*,*,#1232,.T.);
#1898 = ORIENTED_EDGE('',*,*,#1199,.T.);
#1899 = ORIENTED_EDGE('',*,*,#1900,.F.);
#1900 = EDGE_CURVE('',#1137,#1200,#1901,.T.);
#1901 = LINE('',#1902,#1903);
#1902 = CARTESIAN_POINT('',(89.805,-1.6,-7.9));
#1903 = VECTOR('',#1904,1.);
#1904 = DIRECTION('',(-4.440892098501E-16,1.,2.22044604925E-16));
#1905 = PLANE('',#1906);
#1906 = AXIS2_PLACEMENT_3D('',#1907,#1908,#1909);
#1907 = CARTESIAN_POINT('',(88.815,-1.6,-8.89));
#1908 = DIRECTION('',(-0.707106781187,-4.710277376051E-16,0.707106781187
    ));
#1909 = DIRECTION('',(4.440892098501E-16,-1.,-2.22044604925E-16));
#1910 = ADVANCED_FACE('',(#1911),#1922,.F.);
#1911 = FACE_BOUND('',#1912,.F.);
#1912 = EDGE_LOOP('',(#1913,#1914,#1915,#1921));
#1913 = ORIENTED_EDGE('',*,*,#1900,.F.);
#1914 = ORIENTED_EDGE('',*,*,#1136,.F.);
#1915 = ORIENTED_EDGE('',*,*,#1916,.F.);
#1916 = EDGE_CURVE('',#1208,#1129,#1917,.T.);
#1917 = LINE('',#1918,#1919);
#1918 = CARTESIAN_POINT('',(96.045,1.6,-7.9));
#1919 = VECTOR('',#1920,1.);
#1920 = DIRECTION('',(4.440892098501E-16,-1.,-2.22044604925E-16));
#1921 = ORIENTED_EDGE('',*,*,#1207,.F.);
#1922 = PLANE('',#1923);
#1923 = AXIS2_PLACEMENT_3D('',#1924,#1925,#1926);
#1924 = CARTESIAN_POINT('',(92.925,4.745025010572E-14,-7.9));
#1925 = DIRECTION('',(2.22044604925E-16,-2.22044604925E-16,1.));
#1926 = DIRECTION('',(1.,4.440892098501E-16,-2.22044604925E-16));
#1927 = ADVANCED_FACE('',(#1928),#1934,.F.);
#1928 = FACE_BOUND('',#1929,.T.);
#1929 = EDGE_LOOP('',(#1930,#1931,#1932,#1933));
#1930 = ORIENTED_EDGE('',*,*,#1215,.F.);
#1931 = ORIENTED_EDGE('',*,*,#1175,.T.);
#1932 = ORIENTED_EDGE('',*,*,#1128,.T.);
#1933 = ORIENTED_EDGE('',*,*,#1916,.F.);
#1934 = PLANE('',#1935);
#1935 = AXIS2_PLACEMENT_3D('',#1936,#1937,#1938);
#1936 = CARTESIAN_POINT('',(97.035,1.6,-8.89));
#1937 = DIRECTION('',(0.707106781187,1.570092458684E-16,0.707106781187)
  );
#1938 = DIRECTION('',(-4.440892098501E-16,1.,2.22044604925E-16));
#1939 = ADVANCED_FACE('',(#1940),#1951,.F.);
#1940 = FACE_BOUND('',#1941,.T.);
#1941 = EDGE_LOOP('',(#1942,#1943,#1944,#1945));
#1942 = ORIENTED_EDGE('',*,*,#1272,.F.);
#1943 = ORIENTED_EDGE('',*,*,#1360,.T.);
#1944 = ORIENTED_EDGE('',*,*,#1327,.T.);
#1945 = ORIENTED_EDGE('',*,*,#1946,.F.);
#1946 = EDGE_CURVE('',#1265,#1328,#1947,.T.);
#1947 = LINE('',#1948,#1949);
#1948 = CARTESIAN_POINT('',(48.505,-1.6,-7.9));
#1949 = VECTOR('',#1950,1.);
#1950 = DIRECTION('',(-4.440892098501E-16,1.,2.22044604925E-16));
#1951 = PLANE('',#1952);
#1952 = AXIS2_PLACEMENT_3D('',#1953,#1954,#1955);
#1953 = CARTESIAN_POINT('',(47.515,-1.6,-8.89));
#1954 = DIRECTION('',(-0.707106781187,-4.710277376051E-16,0.707106781187
    ));
#1955 = DIRECTION('',(4.440892098501E-16,-1.,-2.22044604925E-16));
#1956 = ADVANCED_FACE('',(#1957),#1968,.F.);
#1957 = FACE_BOUND('',#1958,.F.);
#1958 = EDGE_LOOP('',(#1959,#1960,#1961,#1967));
#1959 = ORIENTED_EDGE('',*,*,#1946,.F.);
#1960 = ORIENTED_EDGE('',*,*,#1264,.F.);
#1961 = ORIENTED_EDGE('',*,*,#1962,.F.);
#1962 = EDGE_CURVE('',#1336,#1257,#1963,.T.);
#1963 = LINE('',#1964,#1965);
#1964 = CARTESIAN_POINT('',(54.745,1.6,-7.9));
#1965 = VECTOR('',#1966,1.);
#1966 = DIRECTION('',(4.440892098501E-16,-1.,-2.22044604925E-16));
#1967 = ORIENTED_EDGE('',*,*,#1335,.F.);
#1968 = PLANE('',#1969);
#1969 = AXIS2_PLACEMENT_3D('',#1970,#1971,#1972);
#1970 = CARTESIAN_POINT('',(51.625,2.510936573892E-14,-7.9));
#1971 = DIRECTION('',(2.22044604925E-16,-2.22044604925E-16,1.));
#1972 = DIRECTION('',(1.,4.440892098501E-16,-2.22044604925E-16));
#1973 = ADVANCED_FACE('',(#1974),#1980,.F.);
#1974 = FACE_BOUND('',#1975,.T.);
#1975 = EDGE_LOOP('',(#1976,#1977,#1978,#1979));
#1976 = ORIENTED_EDGE('',*,*,#1343,.F.);
#1977 = ORIENTED_EDGE('',*,*,#1303,.T.);
#1978 = ORIENTED_EDGE('',*,*,#1256,.T.);
#1979 = ORIENTED_EDGE('',*,*,#1962,.F.);
#1980 = PLANE('',#1981);
#1981 = AXIS2_PLACEMENT_3D('',#1982,#1983,#1984);
#1982 = CARTESIAN_POINT('',(55.735,1.6,-8.89));
#1983 = DIRECTION('',(0.707106781187,1.570092458684E-16,0.707106781187)
  );
#1984 = DIRECTION('',(-4.440892098501E-16,1.,2.22044604925E-16));
#1985 = ADVANCED_FACE('',(#1986),#1997,.F.);
#1986 = FACE_BOUND('',#1987,.T.);
#1987 = EDGE_LOOP('',(#1988,#1989,#1990,#1991));
#1988 = ORIENTED_EDGE('',*,*,#1400,.F.);
#1989 = ORIENTED_EDGE('',*,*,#1488,.T.);
#1990 = ORIENTED_EDGE('',*,*,#1455,.T.);
#1991 = ORIENTED_EDGE('',*,*,#1992,.F.);
#1992 = EDGE_CURVE('',#1393,#1456,#1993,.T.);
#1993 = LINE('',#1994,#1995);
#1994 = CARTESIAN_POINT('',(27.855,-1.6,-7.9));
#1995 = VECTOR('',#1996,1.);
#1996 = DIRECTION('',(-4.440892098501E-16,1.,2.22044604925E-16));
#1997 = PLANE('',#1998);
#1998 = AXIS2_PLACEMENT_3D('',#1999,#2000,#2001);
#1999 = CARTESIAN_POINT('',(26.865,-1.6,-8.89));
#2000 = DIRECTION('',(-0.707106781187,-4.710277376051E-16,0.707106781187
    ));
#2001 = DIRECTION('',(4.440892098501E-16,-1.,-2.22044604925E-16));
#2002 = ADVANCED_FACE('',(#2003),#2014,.F.);
#2003 = FACE_BOUND('',#2004,.F.);
#2004 = EDGE_LOOP('',(#2005,#2006,#2007,#2013));
#2005 = ORIENTED_EDGE('',*,*,#1992,.F.);
#2006 = ORIENTED_EDGE('',*,*,#1392,.F.);
#2007 = ORIENTED_EDGE('',*,*,#2008,.F.);
#2008 = EDGE_CURVE('',#1464,#1385,#2009,.T.);
#2009 = LINE('',#2010,#2011);
#2010 = CARTESIAN_POINT('',(34.095,1.6,-7.9));
#2011 = VECTOR('',#2012,1.);
#2012 = DIRECTION('',(4.440892098501E-16,-1.,-2.22044604925E-16));
#2013 = ORIENTED_EDGE('',*,*,#1463,.F.);
#2014 = PLANE('',#2015);
#2015 = AXIS2_PLACEMENT_3D('',#2016,#2017,#2018);
#2016 = CARTESIAN_POINT('',(30.975,1.293892355551E-14,-7.9));
#2017 = DIRECTION('',(2.22044604925E-16,-2.22044604925E-16,1.));
#2018 = DIRECTION('',(1.,4.440892098501E-16,-2.22044604925E-16));
#2019 = ADVANCED_FACE('',(#2020),#2026,.F.);
#2020 = FACE_BOUND('',#2021,.T.);
#2021 = EDGE_LOOP('',(#2022,#2023,#2024,#2025));
#2022 = ORIENTED_EDGE('',*,*,#1471,.F.);
#2023 = ORIENTED_EDGE('',*,*,#1431,.T.);
#2024 = ORIENTED_EDGE('',*,*,#1384,.T.);
#2025 = ORIENTED_EDGE('',*,*,#2008,.F.);
#2026 = PLANE('',#2027);
#2027 = AXIS2_PLACEMENT_3D('',#2028,#2029,#2030);
#2028 = CARTESIAN_POINT('',(35.085,1.6,-8.89));
#2029 = DIRECTION('',(0.707106781187,1.570092458684E-16,0.707106781187)
  );
#2030 = DIRECTION('',(-4.440892098501E-16,1.,2.22044604925E-16));
#2031 = ADVANCED_FACE('',(#2032),#2043,.F.);
#2032 = FACE_BOUND('',#2033,.T.);
#2033 = EDGE_LOOP('',(#2034,#2035,#2036,#2037));
#2034 = ORIENTED_EDGE('',*,*,#1615,.F.);
#2035 = ORIENTED_EDGE('',*,*,#1558,.T.);
#2036 = ORIENTED_EDGE('',*,*,#1511,.T.);
#2037 = ORIENTED_EDGE('',*,*,#2038,.F.);
#2038 = EDGE_CURVE('',#1608,#1512,#2039,.T.);
#2039 = LINE('',#2040,#2041);
#2040 = CARTESIAN_POINT('',(13.445,1.6,-7.9));
#2041 = VECTOR('',#2042,1.);
#2042 = DIRECTION('',(4.440892098501E-16,-1.,-2.22044604925E-16));
#2043 = PLANE('',#2044);
#2044 = AXIS2_PLACEMENT_3D('',#2045,#2046,#2047);
#2045 = CARTESIAN_POINT('',(14.435,1.6,-8.89));
#2046 = DIRECTION('',(0.707106781187,1.570092458684E-16,0.707106781187)
  );
#2047 = DIRECTION('',(-4.440892098501E-16,1.,2.22044604925E-16));
#2048 = ADVANCED_FACE('',(#2049),#2060,.F.);
#2049 = FACE_BOUND('',#2050,.F.);
#2050 = EDGE_LOOP('',(#2051,#2052,#2058,#2059));
#2051 = ORIENTED_EDGE('',*,*,#1607,.F.);
#2052 = ORIENTED_EDGE('',*,*,#2053,.F.);
#2053 = EDGE_CURVE('',#1520,#1600,#2054,.T.);
#2054 = LINE('',#2055,#2056);
#2055 = CARTESIAN_POINT('',(7.205,-1.6,-7.9));
#2056 = VECTOR('',#2057,1.);
#2057 = DIRECTION('',(-4.440892098501E-16,1.,2.22044604925E-16));
#2058 = ORIENTED_EDGE('',*,*,#1519,.F.);
#2059 = ORIENTED_EDGE('',*,*,#2038,.F.);
#2060 = PLANE('',#2061);
#2061 = AXIS2_PLACEMENT_3D('',#2062,#2063,#2064);
#2062 = CARTESIAN_POINT('',(10.325,1.768481372109E-15,-7.9));
#2063 = DIRECTION('',(2.22044604925E-16,-2.22044604925E-16,1.));
#2064 = DIRECTION('',(1.,4.440892098501E-16,-2.22044604925E-16));
#2065 = ADVANCED_FACE('',(#2066),#2072,.F.);
#2066 = FACE_BOUND('',#2067,.T.);
#2067 = EDGE_LOOP('',(#2068,#2069,#2070,#2071));
#2068 = ORIENTED_EDGE('',*,*,#1527,.F.);
#2069 = ORIENTED_EDGE('',*,*,#1575,.T.);
#2070 = ORIENTED_EDGE('',*,*,#1599,.T.);
#2071 = ORIENTED_EDGE('',*,*,#2053,.F.);
#2072 = PLANE('',#2073);
#2073 = AXIS2_PLACEMENT_3D('',#2074,#2075,#2076);
#2074 = CARTESIAN_POINT('',(6.215,-1.6,-8.89));
#2075 = DIRECTION('',(-0.707106781187,-4.710277376051E-16,0.707106781187
    ));
#2076 = DIRECTION('',(4.440892098501E-16,-1.,-2.22044604925E-16));
#2077 = ADVANCED_FACE('',(#2078),#2089,.F.);
#2078 = FACE_BOUND('',#2079,.T.);
#2079 = EDGE_LOOP('',(#2080,#2081,#2082,#2083));
#2080 = ORIENTED_EDGE('',*,*,#1656,.F.);
#2081 = ORIENTED_EDGE('',*,*,#1744,.T.);
#2082 = ORIENTED_EDGE('',*,*,#1711,.T.);
#2083 = ORIENTED_EDGE('',*,*,#2084,.F.);
#2084 = EDGE_CURVE('',#1649,#1712,#2085,.T.);
#2085 = LINE('',#2086,#2087);
#2086 = CARTESIAN_POINT('',(69.155,-1.6,-7.9));
#2087 = VECTOR('',#2088,1.);
#2088 = DIRECTION('',(-4.440892098501E-16,1.,2.22044604925E-16));
#2089 = PLANE('',#2090);
#2090 = AXIS2_PLACEMENT_3D('',#2091,#2092,#2093);
#2091 = CARTESIAN_POINT('',(68.165,-1.6,-8.89));
#2092 = DIRECTION('',(-0.707106781187,-4.710277376051E-16,0.707106781187
    ));
#2093 = DIRECTION('',(4.440892098501E-16,-1.,-2.22044604925E-16));
#2094 = ADVANCED_FACE('',(#2095),#2106,.F.);
#2095 = FACE_BOUND('',#2096,.F.);
#2096 = EDGE_LOOP('',(#2097,#2098,#2099,#2105));
#2097 = ORIENTED_EDGE('',*,*,#2084,.F.);
#2098 = ORIENTED_EDGE('',*,*,#1648,.F.);
#2099 = ORIENTED_EDGE('',*,*,#2100,.F.);
#2100 = EDGE_CURVE('',#1720,#1641,#2101,.T.);
#2101 = LINE('',#2102,#2103);
#2102 = CARTESIAN_POINT('',(75.395,1.6,-7.9));
#2103 = VECTOR('',#2104,1.);
#2104 = DIRECTION('',(4.440892098501E-16,-1.,-2.22044604925E-16));
#2105 = ORIENTED_EDGE('',*,*,#1719,.F.);
#2106 = PLANE('',#2107);
#2107 = AXIS2_PLACEMENT_3D('',#2108,#2109,#2110);
#2108 = CARTESIAN_POINT('',(72.275,3.627980792232E-14,-7.9));
#2109 = DIRECTION('',(2.22044604925E-16,-2.22044604925E-16,1.));
#2110 = DIRECTION('',(1.,4.440892098501E-16,-2.22044604925E-16));
#2111 = ADVANCED_FACE('',(#2112),#2118,.F.);
#2112 = FACE_BOUND('',#2113,.T.);
#2113 = EDGE_LOOP('',(#2114,#2115,#2116,#2117));
#2114 = ORIENTED_EDGE('',*,*,#1727,.F.);
#2115 = ORIENTED_EDGE('',*,*,#1687,.T.);
#2116 = ORIENTED_EDGE('',*,*,#1640,.T.);
#2117 = ORIENTED_EDGE('',*,*,#2100,.F.);
#2118 = PLANE('',#2119);
#2119 = AXIS2_PLACEMENT_3D('',#2120,#2121,#2122);
#2120 = CARTESIAN_POINT('',(76.385,1.6,-8.89));
#2121 = DIRECTION('',(0.707106781187,1.570092458684E-16,0.707106781187)
  );
#2122 = DIRECTION('',(-4.440892098501E-16,1.,2.22044604925E-16));
#2123 = ADVANCED_FACE('',(#2124),#2140,.T.);
#2124 = FACE_BOUND('',#2125,.T.);
#2125 = EDGE_LOOP('',(#2126,#2127,#2128,#2129,#2130,#2131,#2132,#2133,
    #2134,#2135,#2136,#2137,#2138,#2139));
#2126 = ORIENTED_EDGE('',*,*,#390,.F.);
#2127 = ORIENTED_EDGE('',*,*,#422,.T.);
#2128 = ORIENTED_EDGE('',*,*,#487,.F.);
#2129 = ORIENTED_EDGE('',*,*,#660,.F.);
#2130 = ORIENTED_EDGE('',*,*,#350,.F.);
#2131 = ORIENTED_EDGE('',*,*,#47,.F.);
#2132 = ORIENTED_EDGE('',*,*,#721,.F.);
#2133 = ORIENTED_EDGE('',*,*,#682,.F.);
#2134 = ORIENTED_EDGE('',*,*,#646,.F.);
#2135 = ORIENTED_EDGE('',*,*,#614,.T.);
#2136 = ORIENTED_EDGE('',*,*,#582,.F.);
#2137 = ORIENTED_EDGE('',*,*,#550,.F.);
#2138 = ORIENTED_EDGE('',*,*,#518,.F.);
#2139 = ORIENTED_EDGE('',*,*,#455,.F.);
#2140 = PLANE('',#2141);
#2141 = AXIS2_PLACEMENT_3D('',#2142,#2143,#2144);
#2142 = CARTESIAN_POINT('',(1.093479646461E-15,-1.554902601739E-15,
    -6.606909139491));
#2143 = DIRECTION('',(-1.,-3.387941879216E-16,-2.629913205574E-16));
#2144 = DIRECTION('',(3.387941879216E-16,-1.,0.));
#2145 = ADVANCED_FACE('',(#2146),#2162,.T.);
#2146 = FACE_BOUND('',#2147,.T.);
#2147 = EDGE_LOOP('',(#2148,#2149,#2150,#2151,#2152,#2153,#2154,#2155,
    #2156,#2157,#2158,#2159,#2160,#2161));
#2148 = ORIENTED_EDGE('',*,*,#374,.T.);
#2149 = ORIENTED_EDGE('',*,*,#438,.T.);
#2150 = ORIENTED_EDGE('',*,*,#502,.T.);
#2151 = ORIENTED_EDGE('',*,*,#533,.T.);
#2152 = ORIENTED_EDGE('',*,*,#566,.T.);
#2153 = ORIENTED_EDGE('',*,*,#606,.F.);
#2154 = ORIENTED_EDGE('',*,*,#630,.T.);
#2155 = ORIENTED_EDGE('',*,*,#691,.T.);
#2156 = ORIENTED_EDGE('',*,*,#714,.T.);
#2157 = ORIENTED_EDGE('',*,*,#31,.T.);
#2158 = ORIENTED_EDGE('',*,*,#334,.T.);
#2159 = ORIENTED_EDGE('',*,*,#667,.T.);
#2160 = ORIENTED_EDGE('',*,*,#480,.T.);
#2161 = ORIENTED_EDGE('',*,*,#405,.F.);
#2162 = PLANE('',#2163);
#2163 = AXIS2_PLACEMENT_3D('',#2164,#2165,#2166);
#2164 = CARTESIAN_POINT('',(165.2,5.977488408096E-14,-6.606909139491));
#2165 = DIRECTION('',(1.,0.,3.351259532444E-15));
#2166 = DIRECTION('',(-3.351259532444E-15,0.,1.));
#2167 = ( GEOMETRIC_REPRESENTATION_CONTEXT(3) 
GLOBAL_UNCERTAINTY_ASSIGNED_CONTEXT((#2171)) 
GLOBAL_UNIT_ASSIGNED_CONTEXT((#2168,#2169,#2170)) REPRESENTATION_CONTEXT
('Context #1','3D Context with UNIT and UNCERTAINTY') );
#2168 = ( LENGTH_UNIT() NAMED_UNIT(*) SI_UNIT(.MILLI.,.METRE.) );
#2169 = ( NAMED_UNIT(*) PLANE_ANGLE_UNIT() SI_UNIT($,.RADIAN.) );
#2170 = ( NAMED_UNIT(*) SI_UNIT($,.STERADIAN.) SOLID_ANGLE_UNIT() );
#2171 = UNCERTAINTY_MEASURE_WITH_UNIT(LENGTH_MEASURE(1.E-07),#2168,
  'distance_accuracy_value','confusion accuracy');
#2172 = PRODUCT_RELATED_PRODUCT_CATEGORY('part',$,(#7));
#2173 = MECHANICAL_DESIGN_GEOMETRIC_PRESENTATION_REPRESENTATION('',(
    #2174),#2167);
#2174 = STYLED_ITEM('color',(#2175),#15);
#2175 = PRESENTATION_STYLE_ASSIGNMENT((#2176,#2182));
#2176 = SURFACE_STYLE_USAGE(.BOTH.,#2177);
#2177 = SURFACE_SIDE_STYLE('',(#2178));
#2178 = SURFACE_STYLE_FILL_AREA(#2179);
#2179 = FILL_AREA_STYLE('',(#2180));
#2180 = FILL_AREA_STYLE_COLOUR('',#2181);
#2181 = COLOUR_RGB('',0.678431390124,0.709803936702,0.741176476869);
#2182 = CURVE_STYLE('',#2183,POSITIVE_LENGTH_MEASURE(0.1),#2184);
#2183 = DRAUGHTING_PRE_DEFINED_CURVE_FONT('continuous');
#2184 = COLOUR_RGB('',9.803921802644E-02,9.803921802644E-02,
  9.803921802644E-02);
ENDSEC;
END-ISO-10303-21;
